<?xml version="1.0" encoding="utf-8"?>
<!-- Generator: Adobe Illustrator 21.0.0, SVG Export Plug-In . SVG Version: 6.00 Build 0)  -->
<svg version="1.1" id="Capa_1" xmlns="http://www.w3.org/2000/svg" xmlns:xlink="http://www.w3.org/1999/xlink" x="0px" y="0px"
	 viewBox="0 0 512 512" style="enable-background:new 0 0 512 512;" xml:space="preserve">
<style type="text/css">
	.st0{fill:#2B5ADC;}
</style>
<g>
	<g>
		<path class="st0" d="M64,63.3c-2.1-5-8-7.5-13.1-5.4c-5,2.1-7.5,8-5.4,13.1c2.1,5,8,7.5,13.1,5.4C63.6,74.2,66.1,68.3,64,63.3z"/>
		<path class="st0" d="M98.2,63.3c-2.1-5-8-7.5-13.1-5.4c-5,2.1-7.5,8-5.4,13.1c2.1,5,8,7.5,13.1,5.4
			C97.8,74.2,100.3,68.3,98.2,63.3z"/>
		<path class="st0" d="M134.4,63.3c-2.1-5-8-7.5-13.1-5.4c-5,2.1-7.5,8-5.4,13.1c2.1,5,8,7.5,13.1,5.4
			C134,74.2,136.5,68.3,134.4,63.3z"/>
		<path class="st0" d="M509.1,441.4l-44.3-44.3l39.7-12.3c4.1-1.3,7-5.2,7-9.5c0-4.3-2.9-8.3-7-9.6l-52.1-16.6v-72.8
			c0-5.5-4.5-10-10-10c-5.5,0-10,4.5-10,10v66.5l-83.7-26.6c-7.6-2.4-15,5-12.6,12.6l27.9,87.6H47.9c-15.4,0-27.9-12.5-27.9-27.9
			V113.7h412.5v74.6c0,5.5,4.5,10,10,10c5.5,0,10-4.5,10-10l0-120c0-26.4-21.5-47.9-47.9-47.9H47.9C21.5,20.5,0,41.9,0,68.3l0,320.2
			c0,26.4,21.5,47.9,47.9,47.9h322.7l15.3,48.2c1.3,4.1,5.2,7,9.5,7c4.3,0,8.2-2.9,9.5-7l12.8-40.5l44.3,44.3
			c3.9,3.9,10.2,3.9,14.1,0l32.8-32.8C513,451.8,513,445.1,509.1,441.4z M20,68.3C20,53,32.5,40.5,47.9,40.5h356.8
			c15.4,0,27.8,12.5,27.8,27.8v25.4H20L20,68.3z M469.2,467.2l-48.9-48.9c-5.2-5.2-14.4-3-16.6,4l-8.3,26.2l-34.2-107.4l107.1,34.1
			l-25.2,7.8c-7.1,2.2-9.3,11.4-4.1,16.6l48.9,48.9L469.2,467.2z"/>
		<path class="st0" d="M117.2,134.5c-2.7-0.4-5.4-0.6-8.1-0.6c-33.3,0-60.5,27.1-60.5,60.5s27.1,60.5,60.5,60.5
			c28.6,0,53.6-20.3,59.2-48.4c1.1-5.4-2.4-10.7-7.8-11.8c-5.4-1.1-10.7,2.4-11.8,7.8c-3.8,18.8-20.5,32.4-39.6,32.4
			c-22.3,0-40.5-18.2-40.5-40.5s18.2-40.5,40.5-40.5c1.7,0,3.6,0.1,5.4,0.4c5.5,0.7,10.5-3.1,11.2-8.6
			C126.5,140.2,122.7,135.2,117.2,134.5L117.2,134.5z"/>
		<path class="st0" d="M109.1,395c33.3,0,60.5-27.1,60.5-60.5c0-33.3-27.1-60.5-60.5-60.5s-60.5,27.1-60.5,60.5
			C48.7,367.9,75.8,395,109.1,395z M109.1,294c22.3,0,40.5,18.2,40.5,40.5c0,22.3-18.2,40.5-40.5,40.5c-22.3,0-40.5-18.2-40.5-40.5
			C68.7,312.2,86.8,294,109.1,294z"/>
		<path class="st0" d="M366.7,159.1H203.5c-5.5,0-10,4.5-10,10s4.5,10,10,10h163.1c5.5,0,10-4.5,10-10S372.2,159.1,366.7,159.1z"/>
		<path class="st0" d="M376.7,217.1c0-5.5-4.5-10-10-10H203.5c-5.5,0-10,4.5-10,10c0,5.5,4.5,10,10,10h163.1
			C372.2,227.1,376.7,222.6,376.7,217.1z"/>
		<path class="st0" d="M203.5,321.1h92.1c5.5,0,10-4.5,10-10c0-5.5-4.5-10-10-10h-92.1c-5.5,0-10,4.5-10,10
			C193.5,316.7,198,321.1,203.5,321.1z"/>
		<path class="st0" d="M203.5,369.2h102.1c5.5,0,10-4.5,10-10c0-5.5-4.5-10-10-10H203.5c-5.5,0-10,4.5-10,10
			C193.5,364.7,198,369.2,203.5,369.2z"/>
		<path class="st0" d="M101.6,181.4c-3.9-3.9-10.2-3.9-14.1,0c-3.9,3.9-3.9,10.2,0,14.1l15.3,15.3c3.9,3.9,10.2,3.9,14.1,0
			l48.6-48.6c3.9-3.9,3.9-10.2,0-14.1c-3.9-3.9-10.2-3.9-14.1,0l-41.5,41.5L101.6,181.4z"/>
		<path class="st0" d="M450.8,226.7c-2.3-3.6-6.9-5.2-11-4.1c-4,1.1-7,4.7-7.3,8.9c-0.7,9.3,11.1,14.3,17.3,7.5
			C453,235.6,453.4,230.5,450.8,226.7L450.8,226.7z"/>
	</g>
</g>
</svg>
