<?xml version="1.0" encoding="utf-8"?>
<!-- Generator: Adobe Illustrator 21.0.0, SVG Export Plug-In . SVG Version: 6.00 Build 0)  -->
<svg version="1.1" id="Capa_1" xmlns="http://www.w3.org/2000/svg" xmlns:xlink="http://www.w3.org/1999/xlink" x="0px" y="0px"
	 viewBox="0 0 512 512" style="enable-background:new 0 0 512 512;" xml:space="preserve">
<style type="text/css">
	.social-icon-svg{fill:#222D3D;}
</style>
<g>
	<g>
		<path class="social-icon-svg" d="M256,512C114.8,512,0,397.2,0,256S114.8,0,256,0s256,114.8,256,256S397.2,512,256,512z M256,9
			C119.8,9,9,119.8,9,256s110.8,247,247,247s247-110.8,247-247S392.2,9,256,9z"/>
	</g>
	<path class="social-icon-svg" d="M319.2,265.9h-44.8v164.5h-68.1V265.9H174V208h32.3v-37.2c0-26.9,12.6-68.6,68.6-68.6H325v56h-36.8
		c-5.8,0-14.3,3.1-14.3,15.7V208h50.7L319.2,265.9z"/>
</g>
</svg>
