<?xml version="1.0" encoding="utf-8"?>
<!-- Generator: Adobe Illustrator 21.0.0, SVG Export Plug-In . SVG Version: 6.00 Build 0)  -->
<svg version="1.1" id="Layer_1" xmlns="http://www.w3.org/2000/svg" xmlns:xlink="http://www.w3.org/1999/xlink" x="0px" y="0px"
	 viewBox="0 0 512 512" style="enable-background:new 0 0 512 512;" xml:space="preserve">
<style type="text/css">
	.st0{fill:#061833;}
	.st1{fill:#FFFFFF;}
	.st2{opacity:0.67;fill:url(#SVGID_1_);}
	.st3{fill:#DE1A3E;}
	.st4{fill:#1A4ABD;}
	.st5{fill:none;}
	.st6{opacity:0.67;fill:url(#SVGID_2_);}
	.st7{opacity:0.67;fill:url(#SVGID_3_);}
	.st8{opacity:0.67;fill:url(#SVGID_4_);}
	.st9{opacity:0.67;fill:url(#SVGID_5_);}
</style>
<g>
	<circle class="st0" cx="257" cy="256" r="256"/>
	<g>
		<g>
			<polygon class="st1" points="142.8,195 147.4,204.3 157.7,205.8 150.3,213.1 152,223.4 142.8,218.5 133.5,223.4 135.3,213.1 
				127.8,205.8 138.2,204.3 			"/>
		</g>
		<g>
			<polygon class="st1" points="254.8,153 261.9,167.5 278,169.8 266.4,181.1 269.1,197.1 254.8,189.6 240.4,197.1 243.2,181.1 
				231.6,169.8 247.6,167.5 			"/>
		</g>
		<g>
			<polygon class="st1" points="315.2,169.9 320.9,181.5 333.6,183.3 324.4,192.3 326.6,205 315.2,199 303.8,205 306,192.3 
				296.8,183.3 309.5,181.5 			"/>
		</g>
		<g>
			<polygon class="st1" points="363.9,199.2 368.4,208.4 378.5,209.9 371.2,217 373,227.1 363.9,222.4 354.8,227.1 356.6,217 
				349.3,209.9 359.4,208.4 			"/>
		</g>
		<g>
			
				<linearGradient id="SVGID_1_" gradientUnits="userSpaceOnUse" x1="431.1798" y1="218.6442" x2="196.9665" y2="766.1548" gradientTransform="matrix(0.839 0.121 -0.1595 0.8821 -79.1164 -59.1042)">
				<stop  offset="0" style="stop-color:#FFFFFF;stop-opacity:0.32"/>
				<stop  offset="0.3414" style="stop-color:#B7B6B3;stop-opacity:0.5522"/>
				<stop  offset="0.6541" style="stop-color:#7C7974;stop-opacity:0.7648"/>
				<stop  offset="0.8814" style="stop-color:#57534E;stop-opacity:0.9194"/>
				<stop  offset="1" style="stop-color:#49453F"/>
			</linearGradient>
			<polygon class="st2" points="140.8,357.2 140.8,357.4 140.8,357.4 140.8,357.2 			"/>
			<path class="st3" d="M220.4,325.4L220.4,325.4c2.6,0,5.2-0.1,7.5-0.1C225.7,325.3,223.1,325.3,220.4,325.4z"/>
			<path class="st3" d="M162.7,358L162.7,358c1.3-2.2,2.6-4.3,3.7-6.1C165.3,353.7,164,355.8,162.7,358z"/>
			<polygon class="st3" points="140.6,355.8 140.8,357.2 140.8,357.2 140.6,355.8 			"/>
			<path class="st1" d="M162.7,358C162.6,358,162.6,358,162.7,358L162.7,358C162.6,358,162.7,358,162.7,358L162.7,358z"/>
			<path class="st4" d="M155.4,358.9c-3.7,0.2-7,0-9.9-0.5l0.3,0.2C148.6,359,151.8,359.2,155.4,358.9z"/>
			<path class="st4" d="M155.4,358.9c0.1,0,0.1,0,0.2,0c0,0,0,0,0,0C155.5,358.9,155.5,358.9,155.4,358.9z"/>
			<path class="st1" d="M195.2,195.8C195.2,195.8,195.2,195.8,195.2,195.8C195.2,195.8,195.2,195.8,195.2,195.8L195.2,195.8z"/>
			<path class="st1" d="M145.5,358.4c-1.7-0.3-3.3-0.7-4.7-1.2l0,0.2c1.5,0.5,3.2,0.9,5,1.2L145.5,358.4z"/>
			<path class="st1" d="M156.7,358.8c-0.2,0-0.4,0-0.6,0C156.3,358.8,156.5,358.8,156.7,358.8z"/>
			<path class="st1" d="M140.8,357.2c1.4,0.5,3,0.9,4.7,1.2l-4.9-2.6L140.8,357.2z"/>
			<path class="st1" d="M155.6,358.9c0.2,0,0.4,0,0.6,0c0.2,0,0.4,0,0.6,0c1.9-0.2,3.9-0.5,6-0.9c1.3-2.2,2.6-4.3,3.7-6.1
				C162.8,354.1,159.2,356.5,155.6,358.9z"/>
			<path class="st1" d="M155.6,358.9c0.2,0,0.4,0,0.6,0C155.9,358.9,155.8,358.9,155.6,358.9C155.6,358.9,155.6,358.9,155.6,358.9z"
				/>
			<path class="st1" d="M162.6,358C162.6,358,162.6,358,162.6,358c-2.1,0.3-4.1,0.6-5.9,0.8C158.6,358.6,160.5,358.4,162.6,358z"/>
			<polygon class="st1" points="140.6,355.8 140.6,355.8 140.6,355.8 			"/>
			<path class="st1" d="M236.2,314.7c1.6-0.6,3.2-1.2,4.8-1.8C239.4,313.5,237.8,314.1,236.2,314.7L235,314v0L236.2,314.7z"/>
			<path class="st1" d="M250.4,312C250.4,312,250.4,312,250.4,312c0.2-0.7,0.5-1.5,0.8-2.5C250.9,310.4,250.7,311.2,250.4,312z"/>
			<path class="st5" d="M79.2,285.8c-2.4,0.4-5.1,0.9-7.9,1.4C74.1,286.7,76.9,286.2,79.2,285.8z"/>
			<path class="st5" d="M76,330.7c-1-0.5-2.4-1.3-4.6-2.4l0,0C73.6,329.5,75,330.2,76,330.7z"/>
			<path class="st5" d="M68.8,324.9c0-0.2,0.1-0.5,0.1-0.8C68.9,324.4,68.8,324.6,68.8,324.9C68.8,324.9,68.8,324.9,68.8,324.9z"/>
			<path class="st5" d="M84.5,291.9c0.1-0.2,0.2-0.3,0.3-0.5l0,0C84.7,291.6,84.6,291.7,84.5,291.9z"/>
			<path class="st5" d="M111.4,330.5c-2.7,0.5-5.8,1-8.9,1.6C105.5,331.5,108.7,330.9,111.4,330.5z"/>
			<path class="st5" d="M134.2,307.2c-1.3,2.1-2.8,4.6-4.3,7.1C131.4,311.8,132.9,309.3,134.2,307.2z"/>
			<path class="st5" d="M70.2,318.6c-0.3,0.5-0.4,0.7-0.6,1.4c1.4-2.3,4.6-5,6.8-6.9l0,0C74.5,314.7,71.4,316.6,70.2,318.6z"/>
			<path class="st5" d="M217.2,270.9c0.1-0.5,0.3-0.9,0.4-1.3c-0.2,0.6-0.4,1-0.6,1.4C217,270.9,217.1,270.9,217.2,270.9z"/>
			<path class="st5" d="M221.8,281.6c-2.4-0.2-5.2-0.3-8-0.4C216.6,281.3,219.4,281.4,221.8,281.6z"/>
			<ellipse transform="matrix(0.9487 -0.3162 0.3162 0.9487 -99.3627 54.5719)" class="st5" cx="118.5" cy="333.4" rx="0" ry="0"/>
			<path class="st5" d="M195.8,280.6c-2.4,0-5.3,0.1-8.2,0.1C190.5,280.7,193.3,280.6,195.8,280.6z"/>
			<path class="st5" d="M147.2,279.7c-1.3,2-2.8,4.4-4.4,6.8C144.4,284.2,145.9,281.8,147.2,279.7z"/>
			<path class="st5" d="M191.5,306.4c0.3-0.5,0.6-0.9,1-1.4C192.2,305.4,191.9,305.9,191.5,306.4
				C191.5,306.4,191.5,306.4,191.5,306.4z"/>
			<path class="st5" d="M132.7,327c1.5-0.2,3-0.5,4.3-0.7C135.7,326.5,134.2,326.7,132.7,327C132.7,327,132.7,327,132.7,327z"/>
			<path class="st5" d="M192.6,304.8L192.6,304.8c-5,2.6-10,5.3-15,8.1l-11-6.2l11,6.2C182.6,310.1,187.6,307.4,192.6,304.8z"/>
			<path class="st5" d="M116.7,336.4c0.6-1,1.2-2,1.8-3l0,0C117.9,334.4,117.3,335.4,116.7,336.4z"/>
			<path class="st5" d="M242.7,256.3c-0.6-0.6-1.1-1.2-1.7-1.8c0,0,0,0,0,0C241.6,255.1,242.2,255.8,242.7,256.3z"/>
			<path class="st5" d="M224.1,253.6c0.8-0.8,2.3-2.1,5.7-4.5c0,0,0,0,0,0C226.4,251.6,224.8,252.9,224.1,253.6z"/>
			<path class="st5" d="M163.3,278.4c-2.5,0.2-5.3,0.4-8.2,0.7C157.9,278.8,160.8,278.6,163.3,278.4z"/>
			<path class="st5" d="M205.7,280.8c-1.3,1.7-2.8,3.7-4.3,5.6C202.9,284.4,204.4,282.4,205.7,280.8z"/>
			<path class="st5" d="M242.7,256.3c-2.2-1.6-4-2.9-6-4.1C238.7,253.4,240.6,254.7,242.7,256.3z"/>
			<polygon class="st5" points="252.2,265.3 252.2,265.3 246.7,257.7 246.7,257.7 			"/>
			
				<linearGradient id="SVGID_2_" gradientUnits="userSpaceOnUse" x1="481.619" y1="240.2501" x2="247.432" y2="787.6993" gradientTransform="matrix(0.839 0.121 -0.1595 0.8821 -79.1164 -59.1042)">
				<stop  offset="0" style="stop-color:#FFFFFF;stop-opacity:0.32"/>
				<stop  offset="0.3414" style="stop-color:#B7B6B3;stop-opacity:0.5522"/>
				<stop  offset="0.6541" style="stop-color:#7C7974;stop-opacity:0.7648"/>
				<stop  offset="0.8814" style="stop-color:#57534E;stop-opacity:0.9194"/>
				<stop  offset="1" style="stop-color:#49453F"/>
			</linearGradient>
			<path class="st6" d="M252.2,265.3c0.8-0.6,1.5-1.2,2.3-1.8c0,0,0,0,0,0C253.7,264.1,253,264.7,252.2,265.3L252.2,265.3z"/>
			
				<linearGradient id="SVGID_3_" gradientUnits="userSpaceOnUse" x1="462.0729" y1="284.4857" x2="443.9493" y2="326.8526" gradientTransform="matrix(0.839 0.121 -0.1595 0.8821 -79.1164 -59.1042)">
				<stop  offset="0" style="stop-color:#FFFFFF;stop-opacity:0.32"/>
				<stop  offset="0.3414" style="stop-color:#B7B6B3;stop-opacity:0.5522"/>
				<stop  offset="0.6541" style="stop-color:#7C7974;stop-opacity:0.7648"/>
				<stop  offset="0.8814" style="stop-color:#57534E;stop-opacity:0.9194"/>
				<stop  offset="1" style="stop-color:#49453F"/>
			</linearGradient>
			<polygon class="st7" points="252.2,265.3 252.2,265.3 252.2,265.3 252.2,265.3 			"/>
			
				<linearGradient id="SVGID_4_" gradientUnits="userSpaceOnUse" x1="395.8589" y1="349.658" x2="386.4328" y2="371.6929" gradientTransform="matrix(0.839 0.121 -0.1595 0.8821 -79.1164 -59.1042)">
				<stop  offset="0" style="stop-color:#FFFFFF;stop-opacity:0.32"/>
				<stop  offset="0.3414" style="stop-color:#B7B6B3;stop-opacity:0.5522"/>
				<stop  offset="0.6541" style="stop-color:#7C7974;stop-opacity:0.7648"/>
				<stop  offset="0.8814" style="stop-color:#57534E;stop-opacity:0.9194"/>
				<stop  offset="1" style="stop-color:#49453F"/>
			</linearGradient>
			<circle class="st8" cx="191.5" cy="306.4" r="0"/>
			
				<linearGradient id="SVGID_5_" gradientUnits="userSpaceOnUse" x1="312.0211" y1="402.0652" x2="311.893" y2="402.3648" gradientTransform="matrix(0.839 0.121 -0.1595 0.8821 -79.1164 -59.1042)">
				<stop  offset="0" style="stop-color:#FFFFFF;stop-opacity:0.32"/>
				<stop  offset="0.3414" style="stop-color:#B7B6B3;stop-opacity:0.5522"/>
				<stop  offset="0.6541" style="stop-color:#7C7974;stop-opacity:0.7648"/>
				<stop  offset="0.8814" style="stop-color:#57534E;stop-opacity:0.9194"/>
				<stop  offset="1" style="stop-color:#49453F"/>
			</linearGradient>
			<circle class="st9" cx="118.5" cy="333.4" r="0"/>
			<path class="st3" d="M254.5,263.5c0.3-0.2,0.6-0.5,0.9-0.7l0,0C255.1,263.1,254.8,263.3,254.5,263.5
				C254.5,263.5,254.5,263.5,254.5,263.5z"/>
			<path class="st3" d="M226.9,318.5c-2.5,1.1-5,2.2-7.5,3.4C221.9,320.7,224.4,319.6,226.9,318.5L226.9,318.5z"/>
			<path class="st3" d="M219.7,325.4c0.2,0,0.5,0,0.7,0l0,0C220.2,325.4,220,325.4,219.7,325.4z"/>
			<path class="st3" d="M255.4,262.8C255.4,262.8,255.4,262.8,255.4,262.8c-0.3,0.2-0.6,0.5-0.9,0.7c0,0,0,0,0,0c0,0,0,0,0,0
				C254.8,263.3,255.1,263.1,255.4,262.8z"/>
			<path class="st3" d="M169.5,325.5c-2.5,0.3-5.4,0.7-8.2,1C164.1,326.1,167,325.8,169.5,325.5z"/>
			<path class="st3" d="M188.3,311c1.1-1.6,2.2-3.2,3.2-4.6c0,0,0,0,0,0C190.5,307.8,189.4,309.4,188.3,311z"/>
			<path class="st3" d="M195.4,323.1c-2.4,0.2-5.2,0.4-8,0.6C190.2,323.5,193,323.2,195.4,323.1z"/>
			<path class="st3" d="M128.2,327.7c1.5-0.2,3.1-0.5,4.5-0.7c0,0,0,0,0,0C131.2,327.2,129.7,327.5,128.2,327.7z"/>
			<path class="st3" d="M179.3,324.4c-1.3,2-2.8,4.3-4.3,6.6C176.6,328.7,178.1,326.4,179.3,324.4z"/>
			<path class="st3" d="M118.5,333.4L118.5,333.4c1-1.6,1.9-3.2,2.7-4.6C120.3,330.2,119.4,331.8,118.5,333.4z"/>
			<path class="st3" d="M256.2,298.3c0.8-0.8,2.5-2.2,6.1-4.8C258.6,296.1,257,297.5,256.2,298.3z"/>
			<path class="st3" d="M252,284.5c-0.5-2.1-1-3.8-1.5-5.3C251.1,281.2,251.6,282.9,252,284.5z"/>
			<path class="st3" d="M329.1,247.9c-2.1,1.8-4.1,3.6-6.1,5.4c-14.1,12.4-27.2,23.5-39.4,33.3c-3.5,2.8-6.9,5.5-10.2,8.1
				l-21.1-29.4c0.8-0.6,1.5-1.2,2.3-1.8c0.3-0.2,0.6-0.5,0.9-0.7c0.6,0.4,1.3,0.7,1.9,1.1c2.2-1.3,4.4-2.8,6.8-4.3
				c3.4-2.2,7-4.4,10.7-6.3c14.6-7.6,30-11.2,46.6-7.6C324,246.3,326.6,247,329.1,247.9z"/>
			<path class="st3" d="M270.9,296.7c-0.3-0.3-0.5-0.5-0.8-0.8C270.3,296.1,270.6,296.4,270.9,296.7
				C270.9,296.7,270.9,296.7,270.9,296.7z"/>
			<polygon class="st3" points="273.3,294.7 252.2,265.3 252.2,265.3 273.3,294.7 			"/>
			<path class="st3" d="M254.5,280.4c1.8,1.7,3.4,3.2,5,4.7C257.7,283.4,256,281.8,254.5,280.4z"/>
			<path class="st3" d="M268.8,289.2c-0.1,0-0.3,0-0.8,0.3C268.4,289.3,268.6,289.3,268.8,289.2z"/>
			<path class="st3" d="M253.3,290.1c-3.8-0.7-7.4-1.7-11.1-2.7C245.9,288.4,249.5,289.4,253.3,290.1z"/>
			<path class="st3" d="M426.6,252.1c-6.6-0.5-12.5,1.3-17.7,5.3c2,0,3.9-0.3,5.8-0.4c6-0.5,11.1,1.4,14.6,5.3
				c2.6-2.3,5.2-4.7,7.9-7C433.9,253.4,430.4,252.3,426.6,252.1z"/>
			<polygon class="st3" points="296.3,326.7 296.3,326.7 296.9,327.4 296.9,327.4 			"/>
			<path class="st3" d="M392.7,295.7c-21.8,20-41.5,37-59.2,51.4c-3.1-1.2-6.2-2.5-9.2-3.9c-2-0.9-4-1.9-6-2.9
				c-7.4-3.8-14.5-8.2-21.4-12.9l-0.5-0.7c3.3-2.6,6.7-5.3,10.2-8.1c16.4-13.3,34.5-28.7,54.4-46.7c3.2,3.2,6.4,6.4,9.7,9.5
				C377.2,287.4,384.5,292.4,392.7,295.7z"/>
			<path class="st3" d="M385.6,354.5c5.6-0.5,11.2-1.4,16.9-2.8c23.1-5.5,40.7-18.4,50.2-40.8c3.1-7.2,4.5-14.3,4.3-21.1
				c-13.1,11.7-25.4,23-36,32.8C408.5,334.2,396.7,344.8,385.6,354.5z"/>
			<path class="st1" d="M360.9,271.8c-20,18-38.1,33.5-54.4,46.7c-3.5,2.8-6.9,5.5-10.2,8.1l-7.7-10.7v0l0,0
				c-0.1-0.1-0.2-0.2-0.2-0.3l-0.5-0.7l-0.3-0.4l-14.1-19.7c3.3-2.6,6.7-5.3,10.2-8.1c12.2-9.8,25.3-20.9,39.4-33.3
				c2-1.8,4.1-3.6,6.1-5.4h0c8.3,3,15.5,7.9,22,14.1C354.4,265.2,357.7,268.5,360.9,271.8z"/>
			<path class="st1" d="M270.9,296.7C270.9,296.7,270.9,296.7,270.9,296.7c1.4,1.5,2.7,2.9,4,4.3C273.4,299.4,272.1,298,270.9,296.7
				z"/>
			<path class="st1" d="M274.9,301c-1.6-1.2-3.1-2.2-4.5-3.2C271.8,298.8,273.2,299.8,274.9,301z"/>
			<path class="st1" d="M322.9,253.3c-14.1,12.5-27.2,23.5-39.4,33.3l0,0C295.7,276.8,308.8,265.8,322.9,253.3z"/>
			<polygon class="st1" points="273.4,294.8 273.4,294.8 273.3,294.7 273.3,294.7 			"/>
			<path class="st1" d="M283.6,286.7c-3.5,2.8-6.9,5.5-10.2,8.1l0-0.1C276.7,292.1,280,289.4,283.6,286.7L283.6,286.7z"/>
			<path class="st1" d="M270.9,296.7C270.9,296.7,270.9,296.7,270.9,296.7C270.9,296.7,270.9,296.7,270.9,296.7
				C270.9,296.7,270.9,296.7,270.9,296.7C270.9,296.7,270.9,296.7,270.9,296.7z"/>
			<path class="st1" d="M360.9,271.8c-19.9,18-38,33.5-54.4,46.7l0-0.1C322.9,305.3,340.9,289.9,360.9,271.8
				C360.9,271.8,360.9,271.8,360.9,271.8z"/>
			<path class="st1" d="M306.5,318.6c-3.5,2.8-6.9,5.5-10.2,8.1l0-0.1C299.6,324,303,321.3,306.5,318.6L306.5,318.6z"/>
			<polygon class="st1" points="296.3,326.7 296.3,326.7 296.3,326.6 296.3,326.6 			"/>
			<path class="st1" d="M432.1,266.3c7,13.8-2,31.2-17.3,33.1c-3.9,0.5-8,0.3-11.8-0.5c-3.6-0.8-7-1.8-10.3-3.2
				c-21.8,20-41.4,37-59.1,51.4c16.8,6.3,34.2,8.9,52,7.3c11.3-9.8,23.3-20.6,36-32.3c10.8-10,22.7-21,35.4-32.3
				c-0.3-12-5.5-22.9-15.3-31.4c-1.4-1.2-2.9-2.3-4.5-3.2c-2.7,2.4-5.3,4.7-7.9,7C430.4,263.4,431.3,264.7,432.1,266.3z"/>
			<path class="st1" d="M333.6,347.2c17.7-14.5,37.4-31.5,59.1-51.4c0,0,0,0,0,0C370.9,315.7,351.2,332.7,333.6,347.2
				C333.5,347.1,333.5,347.1,333.6,347.2z"/>
			<path class="st1" d="M437.2,255.2C437.2,255.2,437.1,255.2,437.2,255.2c-2.7,2.3-5.3,4.7-7.9,7c0,0,0,0,0,0
				C431.9,259.9,434.5,257.6,437.2,255.2z"/>
			<path class="st1" d="M385.6,354.5C385.6,354.5,385.6,354.5,385.6,354.5c11.2-9.7,23-20.3,35.4-31.8c10.6-9.8,22.8-21.1,36-32.8
				c0,0,0,0,0,0c-12.7,11.3-24.6,22.3-35.4,32.3C408.9,333.9,396.9,344.6,385.6,354.5z"/>
			<polygon class="st4" points="197.5,291.5 197.5,291.5 197.5,291.5 			"/>
			<path class="st4" d="M191.6,306.3C191.6,306.3,191.6,306.4,191.6,306.3C191.5,306.4,191.5,306.4,191.6,306.3
				C191.6,306.4,191.6,306.3,191.6,306.3z"/>
			<path class="st4" d="M288.6,315.9L288.6,315.9L288.6,315.9c-0.1-0.1-0.2-0.2-0.3-0.4c-0.6-0.8-1.4-1.8-2-2.6
				c0.5,0.5,0.9,1,1.2,1.5l-14.2-19.7l-16.9-23.5l-0.3-0.3c-0.6-0.9-1.4-1.9-2.1-2.6c0.5,0.5,0.9,1,1.3,1.5l-3.2-4.5
				c0.8-0.6,1.5-1.2,2.3-1.8c0.3-0.2,0.6-0.5,0.9-0.7c-2.9-1.7-5.8-3.4-8.7-5.1c-1.9-1.1-3.8-2.2-5.6-3.2c0.5,0.6,1.1,1.2,1.7,1.8
				c-2.2-1.6-4-2.9-6-4.1c-0.1-0.1-0.2-0.1-0.4-0.2c-1-0.5-1.9-0.9-2.9-1.4c-1.2-0.6-2.5-1.1-3.7-1.6c-3.3,2.4-4.9,3.7-5.7,4.5
				c-0.6,0.6-0.7,0.9-0.8,1.1c-0.8-2-0.9-2.1-1.9-8.4c-22.7-6-44.1,0.5-61.8,18.8c-2.3,2.4-4.6,4.8-7,7.2l10.6,6.1
				c-2.5,0.2-5.3,0.4-8.2,0.7c-2.7,0.2-5.5,0.5-7.8,0.7c-1.3,2-2.8,4.4-4.4,6.8c-1.3,2.1-2.6,4.1-3.8,5.9l-1-6.7
				c-8.2,6.4-17.3,11.1-27.6,13.3c-10.9,2.3-20.2-0.7-25.7-7.7c-0.1,0.2-0.2,0.3-0.3,0.5c-1.2,2.1-2.4,4.1-3.4,5.9l-1.8-12
				c-2.4,0.4-5.1,0.9-7.9,1.4c-2.8,0.5-5.5,1-7.9,1.4c4.9-3.4,9.8-6.8,14.7-10.1l-1.8-11.9l4.5,2.4c2.7-8.3,10.4-13.5,21-11.7
				c1.1,0.2,2.2,0.3,3.5,0.4c-7.7-7.2-21.8-7.7-30.7-1c-13.6,10.2-19.7,23.9-16.9,40.7c1.4,8.7,4.2,16.3,8.2,23
				c1.1-0.7,2.1-1.5,3.2-2.2c2.5-1.7,4.9-3.4,7.4-5.1c-1.1,1-2.4,2.1-3.7,3.3c-1.2,1.2-2.4,2.4-3.1,3.6c-0.2,0.7-0.4,1.9-0.7,4.2
				c0,0.3-0.1,0.6-0.1,0.8c0.8,1.2,1.7,2.3,2.6,3.4c2.2,1.2,3.6,1.9,4.6,2.4c1.7,0.9,2.2,1.1,3.3,1.7c-0.4,0.1-1.7,0.3-3.4,0.6
				c6.3,6,14,10.8,22.8,14.5c11.6,4.8,23.4,7.2,35.2,7.6c0.7,0,5.2,1.5,6.8,2.1l-0.2-1.3l4.9,2.6c2.9,0.5,6.2,0.7,9.9,0.5
				c0,0,0.1,0,0.2,0c3.6-2.4,7.2-4.8,10.8-7.1c-1.1,1.9-2.4,4-3.7,6.1c14.9-2.8,35.9-11.5,65.5-30.7l-0.3-2c-2.2,0-4.8,0-7.4,0.1
				c-0.2,0-0.5,0-0.7,0c-2.8,0-5.5,0.1-7.9,0.2c2.5-1.3,5-2.5,7.5-3.6c2.5-1.2,5-2.3,7.5-3.4l-1.7-10.8l9.8,6.2l1.2,0.7
				c1.6-0.6,3.2-1.2,4.8-1.8c1.6-0.6,3.2-1.1,4.8-1.7c1.8-0.6,3.6-1.2,5.4-1.7c-0.3,1-0.5,1.8-0.8,2.4c1.6-1.1,3.2-2.3,4.8-3.5
				c1.1-0.8,2.2-1.6,3.3-2.5c0.8-0.6,0.9-0.7,0.1-0.1c1.1-0.1,2.3-0.6,3.3-0.9c0.6,0.5,1.3,1.6,2.3,1.8c6.6,1.4,12.1,5,17.2,9.1
				c4.7,3.8,9.6,7.4,14.5,10.9c0.1-0.1,0.2-0.1,0.3-0.2L288.6,315.9z M132.7,327c-1.5,0.2-3,0.5-4.5,0.7c-2.5,0.4-4.9,0.8-7,1.1
				c-0.8,1.4-1.8,3-2.7,4.6c-0.6,1-1.2,2-1.8,3c-1.2,2.1-2.5,4.2-3.5,6l-1.8-12c-2.7,0.5-5.8,1-8.9,1.6c-2.4,0.4-4.8,0.8-6.9,1.2
				c4.9-3.4,9.8-6.8,14.7-10.1l-0.2-1.4c0,0,0-0.1-0.1-0.5l-1.5-10.1l10.9,5.8c4.9-3.3,9.9-6.6,14.8-9.7c-1.3,2.1-2.8,4.6-4.3,7.1
				c-1.3,2.2-2.6,4.3-3.8,6.2l10.9,5.8C135.7,326.5,134.2,326.7,132.7,327z M187.4,323.7c-2.8,0.2-5.6,0.5-8.1,0.7
				c-1.3,2-2.8,4.3-4.3,6.6c-1.4,2.1-2.7,4.2-3.9,6.1l-1.7-11.6c-2.5,0.3-5.4,0.7-8.3,1c-2.7,0.3-5.4,0.7-7.7,1
				c5-3.1,9.9-6.2,14.9-9.2l-0.1-0.5l-1.7-11l11,6.2c5-2.8,10-5.5,15-8.1c0,0-0.1,0.1-0.1,0.1c-0.3,0.4-0.6,0.9-1,1.4
				c-1,1.5-2.1,3-3.2,4.6c-1.4,2-2.8,4-4,5.8l11,6.3C193,323.2,190.2,323.5,187.4,323.7z M213.8,281.1c-2.8-0.1-5.6-0.3-8.1-0.4
				c-1.3,1.7-2.8,3.6-4.3,5.6c-1.4,1.8-2.7,3.6-3.9,5.2l-1.7-10.9c-2.4,0-5.3,0.1-8.2,0.1c-2.8,0-5.5,0.1-7.9,0.2c5-2.5,10-4.8,15-7
				l-1.7-10.8l11,7c3.2-1.3,6.5-2.4,9.7-3.5c1.8-0.6,3.6-1.2,5.4-1.7c-0.8,2.5-1.2,3.8-1.5,4.6c-0.1,0.4-0.3,0.9-0.4,1.3
				c0,0-0.1,0.1-0.2,0.1c-0.1,0.1-0.1,0.3-0.2,0.4c-1.8,0.9-4.2,2.1-6,3l11,7.1C219.4,281.4,216.6,281.3,213.8,281.1z M270.3,297.8
				c-0.2-0.1-0.4-0.2-0.5-0.3c-2.2-1.4-4.5-2.6-7.5-4c-3.6,2.6-5.3,4-6.1,4.8c-0.6,0.6-0.7,0.9-0.8,1.1c-0.9-2.1-0.9-2.1-2-9.3
				c-3.8-0.7-7.4-1.7-11.1-2.7c-0.9-0.2-1.8-0.4-2.6-0.6c-0.5-0.1-0.9-0.2-1.4-0.3c0.3-0.1,0.7-0.1,1-0.2c2.3-0.5,4.5-0.9,6.6-1.2
				c1.1-0.1,2.1-0.2,3.2-0.3c1-0.1,2.1-0.1,3-0.1c0,0,0,0,0,0c-0.4-1.6-0.9-3.4-1.5-5.3c-0.3-1.2-0.7-2.3-1-3.3
				c1.9,1.7,3.5,3.2,5,4.6c1.5,1.4,3.1,3,5,4.7c3.5,0.7,6.6,2,8.9,3.8c0.1,0.1,0.2,0.2,0.3,0.2c-0.2,0-0.4,0-0.8,0.3
				c-0.5,0.2-1.2,0.7-2.5,1.6c1.7,1.8,3.2,3.3,4.6,4.8c0.3,0.3,0.5,0.5,0.8,0.8c1.4,1.5,2.7,2.9,4,4.3
				C273.2,299.8,271.8,298.8,270.3,297.8z"/>
			<path class="st4" d="M296.1,326.9c0.3,0.2,0.5,0.4,0.8,0.5l-0.5-0.7C296.2,326.7,296.2,326.8,296.1,326.9z"/>
			
				<ellipse transform="matrix(0.7894 -0.6139 0.6139 0.7894 -187.2607 153.5529)" class="st4" cx="130.1" cy="349.7" rx="0" ry="0"/>
			<path class="st4" d="M296.3,326.6c-0.1,0.1-0.2,0.1-0.3,0.2c0,0,0,0,0.1,0.1C296.2,326.8,296.2,326.7,296.3,326.6L296.3,326.6z"
				/>
			<path class="st1" d="M78.1,278.4c-4.9,3.3-9.8,6.7-14.7,10.1c2.4-0.4,5.1-0.9,7.9-1.4c2.8-0.5,5.5-1,7.9-1.4l1.8,12
				c1-1.8,2.2-3.8,3.4-5.9c0.1-0.2,0.2-0.3,0.3-0.5c-2.4-3.1-4.1-7.1-4.8-11.7c-0.6-3.9-0.3-7.6,0.8-10.8l-4.5-2.4L78.1,278.4z"/>
			<path class="st1" d="M71.3,287.2c-2.8,0.5-5.5,1-7.9,1.4C65.8,288.1,68.6,287.7,71.3,287.2z"/>
			<path class="st1" d="M84.5,291.9c-1.2,2.1-2.4,4.1-3.4,5.9C82.1,296,83.3,294,84.5,291.9z"/>
			<path class="st1" d="M75.9,333c1.6-0.3,2.8-0.5,3.4-0.6c-1.1-0.5-1.5-0.7-3.3-1.7c-1-0.5-2.4-1.3-4.6-2.4
				C72.8,330,74.4,331.5,75.9,333z"/>
			<path class="st1" d="M68.9,324.1C68.9,324.1,68.9,324.1,68.9,324.1c0.2-1.4-0.3-2.5,0.6-4c0-0.1,0.1-0.1,0.1-0.2
				c0.2-0.6,0.3-0.9,0.6-1.4c1.1-2,4.3-3.9,6.2-5.5c-2.5,1.7-4.9,3.4-7.4,5.1c-1.1,0.7-2.1,1.5-3.2,2.2c0.9,1.6,1.9,3.1,2.9,4.5
				C68.8,324.6,68.9,324.4,68.9,324.1z"/>
			<path class="st1" d="M75.9,333C75.9,333,75.9,333,75.9,333c1.7-0.3,3-0.5,3.4-0.6C78.8,332.5,77.5,332.7,75.9,333z"/>
			<path class="st1" d="M76,330.7c1.8,0.9,2.3,1.2,3.3,1.7C78.3,331.9,77.8,331.6,76,330.7z"/>
			<path class="st1" d="M68.9,324C68.9,324.1,68.9,324.1,68.9,324c0.3-2.2,0.5-3.4,0.7-4.1c0,0.1-0.1,0.1-0.1,0.2
				C68.6,321.7,69.1,322.8,68.9,324z"/>
			<path class="st1" d="M76.4,313c-2.5,1.7-4.9,3.4-7.4,5.1C71.5,316.5,73.9,314.7,76.4,313L76.4,313z"/>
			<path class="st1" d="M143.2,281.4c-1.7,1.5-3.4,3-5.2,4.4l1,6.7v0c1.1-1.8,2.4-3.8,3.8-5.9c1.5-2.4,3.1-4.8,4.4-6.8
				c2.4-0.2,5.1-0.4,7.8-0.7c2.9-0.2,5.8-0.5,8.2-0.7l-10.7-6.1C149.5,275.4,146.4,278.5,143.2,281.4z"/>
			<path class="st1" d="M155,279.1c-2.7,0.2-5.5,0.5-7.8,0.7C149.6,279.5,152.3,279.3,155,279.1z"/>
			<polygon class="st1" points="139.1,292.4 138.1,285.8 138.1,285.8 139.1,292.4 			"/>
			<path class="st1" d="M142.9,286.5c-1.3,2.1-2.6,4.1-3.8,5.9C140.2,290.7,141.5,288.6,142.9,286.5z"/>
			<path class="st1" d="M236.4,252.1c0.1,0.1,0.2,0.1,0.4,0.2c2,1.2,3.8,2.4,6,4.1c-0.5-0.6-1.1-1.2-1.7-1.8
				C239.5,253.7,238,252.8,236.4,252.1z"/>
			<path class="st1" d="M229.7,249.1c-2.8-1.1-5.6-2-8.3-2.7c1,6.1,1,6.2,1.9,8.4c0.1-0.2,0.2-0.5,0.8-1.1
				C224.8,252.9,226.4,251.6,229.7,249.1z"/>
			<path class="st1" d="M223.2,254.7c0.1-0.3,0.2-0.5,0.8-1.1C223.4,254.2,223.3,254.5,223.2,254.7z"/>
			<path class="st1" d="M236.4,252.1c0.1,0.1,0.2,0.1,0.4,0.2C236.6,252.2,236.5,252.1,236.4,252.1L236.4,252.1z"/>
			<path class="st1" d="M221.4,246.4C221.4,246.4,221.4,246.4,221.4,246.4c1,6.2,1,6.3,1.9,8.4C222.4,252.6,222.4,252.5,221.4,246.4
				z"/>
			<path class="st1" d="M121.2,328.8l-2.7,4.6c-0.6,1-1.2,2-1.8,3c-1.2,2.1-2.5,4.2-3.5,6l-1.8-12c-2.7,0.5-5.8,1-8.9,1.6
				c-2.4,0.4-4.8,0.8-6.9,1.2c4.9-3.4,9.8-6.8,14.7-10.1l-0.2-1.4l-0.1-0.5l-1.5-10.1l10.9,5.8c4.9-3.3,9.9-6.6,14.8-9.7
				c-1.3,2.1-2.8,4.6-4.3,7.1c-1.3,2.2-2.6,4.3-3.8,6.2l10.9,5.8c-1.3,0.2-2.8,0.4-4.3,0.7c-2.7,0.4-4.7,0.7-7.3,1.2L121.2,328.8z"
				/>
			<path class="st1" d="M129.9,314.3c-1.3,2.2-2.6,4.3-3.8,6.2C127.2,318.6,128.6,316.5,129.9,314.3z"/>
			<path class="st1" d="M102.4,332c-2.4,0.4-4.8,0.8-6.9,1.2C97.6,332.9,100,332.4,102.4,332z"/>
			<path class="st1" d="M116.7,336.4c-1.2,2.1-2.5,4.2-3.5,6C114.2,340.6,115.5,338.5,116.7,336.4z"/>
			<path class="st1" d="M128.2,327.7c-2.5,0.4-4.9,0.8-7,1.1C123.3,328.5,125.7,328.1,128.2,327.7z"/>
			<path class="st1" d="M187.6,280.7c2.9-0.1,5.7-0.1,8.2-0.1l1.7,10.9c1.2-1.6,2.5-3.4,3.9-5.2c1.5-2,3-3.9,4.3-5.6
				c2.4,0.1,5.3,0.2,8.1,0.4c2.8,0.1,5.6,0.3,8,0.4l-11-7.1c1.9-1,4.3-2.4,6.2-3.5c0.2-0.4,0.4-0.8,0.6-1.4c0.5-1.6,1-3,1.5-4.7
				c-1.8,0.5-3.6,1-5.4,1.7c-3.2,1.1-6.5,2.3-9.7,3.5l-11-7l1.7,10.8c-5,2.2-10,4.5-15,7C182.1,280.8,184.8,280.8,187.6,280.7z"/>
			<path class="st1" d="M213.8,281.1c-2.8-0.1-5.6-0.3-8.1-0.4C208.1,280.8,210.9,281,213.8,281.1z"/>
			<path class="st1" d="M197.5,291.5c1.2-1.6,2.5-3.3,3.9-5.2C200,288.2,198.6,290,197.5,291.5L197.5,291.5z"/>
			<path class="st1" d="M187.6,280.7c-2.8,0-5.5,0.1-7.9,0.2C182.1,280.8,184.8,280.8,187.6,280.7z"/>
			<polygon class="st1" points="195.8,280.6 197.5,291.5 197.5,291.5 			"/>
			<path class="st1" d="M216.8,271.4c0.1-0.2,0.2-0.3,0.2-0.4c-1.9,1.1-4.3,2.5-6.2,3.5C212.6,273.5,215,272.3,216.8,271.4z"/>
			<polygon class="st1" points="197.5,291.5 197.5,291.5 197.5,291.5 			"/>
			<path class="st1" d="M219.1,264.9c-0.5,1.6-0.9,3-1.5,4.7C217.9,268.7,218.3,267.4,219.1,264.9z"/>
			<path class="st1" d="M184.4,316.8c1.2-1.7,2.6-3.7,3.9-5.8c0.7-1.1,2.2-3.2,3.2-4.6c0.5-0.7,0.9-1.2,1-1.4c0-0.1,0.1-0.1,0.1-0.2
				c-5,2.6-10,5.3-15,8.1l-11-6.2l1.7,11.6c-5,3-9.9,6-14.9,9.2c2.3-0.3,5-0.7,7.7-1c2.9-0.4,5.8-0.7,8.2-1l1.7,11.7
				c1.2-1.8,2.5-3.9,3.9-6.1c1.5-2.3,3-4.7,4.3-6.6c2.4-0.2,5.2-0.5,8.1-0.7c2.8-0.2,5.6-0.5,8-0.6L184.4,316.8z"/>
			<path class="st1" d="M192.6,304.8L192.6,304.8c0,0.1-0.1,0.1-0.1,0.2C192.5,304.9,192.6,304.9,192.6,304.8z"/>
			<path class="st1" d="M187.4,323.7c-2.8,0.2-5.6,0.5-8.1,0.7C181.8,324.2,184.6,323.9,187.4,323.7z"/>
			<path class="st1" d="M188.3,311c-1.4,2-2.8,4-3.9,5.8C185.6,315,186.9,313,188.3,311z"/>
			<path class="st1" d="M175.1,331c-1.4,2.1-2.7,4.2-3.9,6.1C172.4,335.3,173.7,333.2,175.1,331z"/>
			<path class="st1" d="M161.2,326.5c-2.7,0.3-5.4,0.7-7.7,1C155.8,327.2,158.5,326.8,161.2,326.5z"/>
			<path class="st1" d="M239.2,286.2c-0.3,0.1-0.7,0.1-1,0.2c0.5,0.1,0.9,0.2,1.4,0.3L239.2,286.2z"/>
			<g>
				<path class="st1" d="M270.1,295.9c-1.7-1.8-3.2-3.3-4.6-4.8c1.3-0.9,2-1.3,2.5-1.6c0.5-0.2,0.7-0.3,0.8-0.3
					c-0.1-0.1-0.2-0.2-0.3-0.2c-2.4-1.9-5.4-3.1-8.9-3.8c-1.6-1.5-3.2-3-5-4.7c-1.8-1.7-3.4-3.1-5-4.6c0.4,1.2,0.7,2.3,1,3.3
					c0.4,1.6,0.9,3.3,1.5,5.3c0,0,0,0,0,0c-1,0-2,0.1-3,0.1c-1,0.1-2.1,0.2-3.2,0.3c-2.1,0.3-4.3,0.7-6.5,1.2l0.4,0.5
					c0.9,0.2,1.8,0.4,2.6,0.6c3.7,0.9,7.3,1.9,11.1,2.7c1.2,7.1,1.2,7.1,2,9.3c0.1-0.2,0.2-0.5,0.8-1.1c0.8-0.8,2.4-2.1,6.1-4.8
					c3,1.4,5.3,2.6,7.5,4c0.4-0.3,0.7-0.5,1.1-0.8C270.6,296.4,270.3,296.1,270.1,295.9z"/>
				<path class="st1" d="M270.9,296.7c-0.3,0.3-0.7,0.5-1,0.8c0.2,0.1,0.3,0.2,0.5,0.3c1.5,0.9,2.9,1.9,4.5,3.2
					C273.6,299.6,272.3,298.2,270.9,296.7z"/>
			</g>
			<path class="st1" d="M270.9,296.7C270.9,296.7,270.9,296.7,270.9,296.7c-0.4,0.2-0.8,0.5-1.1,0.8c0,0,0,0,0.1,0
				C270.2,297.3,270.6,297,270.9,296.7z"/>
			<path class="st1" d="M238.2,286.4c0.5,0.1,0.9,0.2,1.4,0.3l0,0C239.1,286.7,238.7,286.5,238.2,286.4z"/>
			<path class="st1" d="M250.5,279.2c-0.3-1.1-0.6-2.1-1-3.3C249.9,276.9,250.2,278,250.5,279.2z"/>
			<path class="st1" d="M249.6,275.8c1.6,1.4,3.2,2.9,5,4.6C253,279,251.4,277.5,249.6,275.8z"/>
			<path class="st1" d="M252,284.5C252,284.5,252,284.5,252,284.5c-1,0-2,0.1-3,0.2C250,284.6,251,284.6,252,284.5
				C252,284.5,252,284.5,252,284.5z"/>
			<path class="st1" d="M239.6,286.8L239.6,286.8c0.9,0.2,1.8,0.4,2.6,0.6C241.4,287.2,240.5,287,239.6,286.8z"/>
			<path class="st1" d="M267.9,289.5c-0.5,0.2-1.2,0.7-2.5,1.6C266.7,290.2,267.5,289.8,267.9,289.5z"/>
			<path class="st1" d="M262.2,293.5c3,1.4,5.3,2.6,7.5,4l0,0C267.5,296.1,265.2,294.9,262.2,293.5z"/>
			<path class="st1" d="M255.4,299.4c0.1-0.3,0.2-0.5,0.8-1.1C255.6,298.9,255.5,299.2,255.4,299.4z"/>
			<path class="st1" d="M265.5,291.1c1.4,1.5,2.9,3,4.6,4.8C268.7,294.4,267.2,292.9,265.5,291.1z"/>
			<path class="st1" d="M255.4,299.4c-0.9-2.2-0.9-2.2-2-9.3C254.5,297.3,254.5,297.3,255.4,299.4z"/>
			<path class="st1" d="M269.9,297.5c0.2,0.1,0.3,0.2,0.5,0.3C270.2,297.7,270,297.6,269.9,297.5L269.9,297.5z"/>
			<path class="st1" d="M269.9,297.5C269.8,297.5,269.8,297.5,269.9,297.5L269.9,297.5C269.8,297.5,269.8,297.5,269.9,297.5
				L269.9,297.5z"/>
			<path class="st1" d="M251.2,309.5c-0.3,0.9-0.5,1.7-0.8,2.5c-7.9,5.7-15.3,10.8-22.2,15.3l-0.3-2c-2.2,0-4.8,0-7.4,0.1
				c-0.2,0-0.5,0-0.7,0c-2.8,0-5.5,0.1-7.9,0.2c2.5-1.3,5-2.5,7.5-3.6c2.5-1.2,5-2.3,7.5-3.4l-1.7-10.8l9.8,6.2l1.2,0.7
				c1.6-0.6,3.2-1.2,4.8-1.8c1.6-0.6,3.2-1.1,4.8-1.7C247.6,310.6,249.4,310,251.2,309.5z"/>
			<polygon class="st1" points="235,314 225.2,307.7 235,314 			"/>
			<path class="st1" d="M219.7,325.4c-2.8,0-5.5,0.1-7.9,0.2C214.2,325.5,217,325.4,219.7,325.4z"/>
			<polygon class="st1" points="225.2,307.7 226.9,318.5 226.9,318.5 			"/>
			<path class="st1" d="M288.3,315.5c-0.6-0.8-1.4-1.8-2-2.6c0.5,0.5,0.9,1,1.2,1.5l0.3,0.4L288.3,315.5z"/>
			<polygon class="st1" points="288.6,315.9 288.6,315.9 288.6,315.9 			"/>
		</g>
		<g>
			<polygon class="st1" points="194.6,170.4 200.4,182.1 213.4,184 204,193.2 206.2,206.1 194.6,200 183,206.1 185.2,193.2 
				175.8,184 188.8,182.1 			"/>
		</g>
	</g>
</g>
</svg>
