<?xml version="1.0" standalone="no"?>
<!DOCTYPE svg PUBLIC "-//W3C//DTD SVG 20010904//EN"
 "http://www.w3.org/TR/2001/REC-SVG-20010904/DTD/svg10.dtd">
<svg version="1.0" xmlns="http://www.w3.org/2000/svg"
 width="512" height="512" viewBox="0 0 512 512"
 preserveAspectRatio="xMidYMid meet">

<g transform="translate(0.000000,512.000000) scale(0.1,-0.1)"
fill="#222D3D" stroke="none">
<path d="M1465 4803 c-501 -67 -917 -403 -1083 -873 -70 -200 -67 -135 -67
-1345 0 -1167 -2 -1128 51 -1304 128 -427 482 -769 915 -886 171 -46 202 -47
1314 -43 1150 4 1075 0 1274 65 381 122 712 453 834 834 65 199 61 124 65
1274 4 1112 3 1143 -43 1314 -115 426 -455 781 -870 911 -185 57 -109 54
-1280 56 -594 1 -1093 0 -1110 -3z m2265 -221 c416 -120 704 -411 811 -817
l24 -90 0 -1095 0 -1095 -24 -90 c-106 -405 -411 -710 -816 -816 l-90 -24
-1095 0 -1095 0 -90 24 c-408 107 -703 401 -818 816 l-22 80 0 1105 0 1105 28
99 c119 425 466 742 896 816 25 4 534 7 1131 6 1082 -2 1085 -2 1160 -24z"/>
<path d="M3697 3990 c-109 -33 -167 -168 -118 -275 66 -145 281 -152 354 -12
32 63 34 118 4 180 -47 95 -141 137 -240 107z"/>
<path d="M2310 3670 c-382 -81 -689 -353 -823 -727 -77 -214 -77 -511 0 -726
125 -353 406 -613 769 -714 92 -26 113 -28 284 -28 171 0 192 2 285 28 388
107 684 403 792 793 26 92 28 113 28 284 0 171 -2 192 -28 284 -116 418 -452
732 -867 810 -114 22 -330 20 -440 -4z m450 -200 c509 -123 811 -660 654
-1163 -89 -286 -315 -512 -601 -601 -436 -136 -903 68 -1099 480 -63 132 -88
241 -88 394 0 260 95 483 280 661 86 81 143 120 247 169 190 89 400 109 607
60z"/>
</g>
</svg>
