<?xml version="1.0" encoding="utf-8"?>
<!-- Generator: Adobe Illustrator 21.0.0, SVG Export Plug-In . SVG Version: 6.00 Build 0)  -->
<svg version="1.1" id="Capa_1" xmlns="http://www.w3.org/2000/svg" xmlns:xlink="http://www.w3.org/1999/xlink" x="0px" y="0px"
	 viewBox="0 0 512 512" style="enable-background:new 0 0 512 512;" xml:space="preserve">
<style type="text/css">
	.st0{fill:#2B5ADC;}
</style>
<g>
	<g>
		<path class="st0" d="M348.9,113.4v25.2c0,4.6,2.8,8.7,7,10.5c4.3,1.8,9.2,0.8,12.4-2.5L400,115h79.9c16.3,0,29.5-13.2,29.5-29.5
			v-56c0-16.3-13.2-29.5-29.5-29.5H358.5C342.2,0,329,13.2,329,29.5v56C329,98.1,337.2,109.3,348.9,113.4L348.9,113.4z M344,29.5
			c0-8,6.5-14.5,14.5-14.5h121.4c8,0,14.5,6.5,14.5,14.5v56c0,8-6.5,14.5-14.5,14.5h-81.7c-2.9,0-5.5,1.1-7.6,3.1l-26.7,26.7v-19.7
			c0-5-3.5-9.4-8.4-10.5c-6.7-1.4-11.5-7.4-11.5-14.2L344,29.5L344,29.5z"/>
		<path class="st0" d="M492,440h-14.3V204.2c0-15.5-12.6-28.2-28.2-28.2H309.3c-4.1,0-7.5,3.4-7.5,7.5s3.4,7.5,7.5,7.5h140.3
			c7.3,0,13.2,5.9,13.2,13.2V440h-25V237.2c0-11.7-9.5-21.2-21.2-21.2H263.4c2.2-5.7,3.7-11.8,4.4-18.1c8-1.8,13.9-8.9,13.9-17.4
			c0-6.9,0-58.6,0-64.8c0-14.8-12-26.9-26.8-27c-0.5-14.5-12.4-26.1-27-26.1h-67.2c-28.9,0-52.4,23.5-52.4,52.4v65.5
			c0,8.5,6,15.6,13.9,17.4c0.7,6.3,2.2,12.4,4.4,18.1H95.5c-11.7,0-21.2,9.5-21.2,21.2v61.2c-9.8,3.7-18.4,9.8-25,17.5V204.2
			c0-7.3,5.9-13.2,13.2-13.2h18.7c4.1,0,7.5-3.4,7.5-7.5s-3.4-7.5-7.5-7.5H62.5c-15.5,0-28.2,12.6-28.2,28.2v151.9V440H20
			c-11,0-19.9,8.9-19.9,19.9c0,28.7,23.4,52.1,52.1,52.1h407.6c28.7,0,52.1-23.4,52.1-52.1C511.9,448.9,503,440,492,440z M416.5,231
			c3.4,0,6.2,2.8,6.2,6.2V440h-66.9v-27.5c0-4.1-3.4-7.5-7.5-7.5s-7.5,3.4-7.5,7.5V440h-36v-23.8c0-4.1-3.4-7.5-7.5-7.5
			s-7.5,3.4-7.5,7.5V440h-61l-16.2-91.1l6.2-11.1c1.2,0.3,2.4,0.4,3.6,0.4c4.3,0,8.6-1.6,11.9-4.8l27.8-27.1c2-1.9,3.4-4.3,4.2-6.8
			l41,12c19.7,5.8,33.4,24.1,33.4,44.7v21.4c0,4.1,3.4,7.5,7.5,7.5s7.5-3.4,7.5-7.5v-21.4c0-27.1-18.2-51.4-44.2-59.1l-49.5-14.5
			c-1.4-1.3-2.9-2.4-4.7-3.1l-10.2-4.6c-3-1.3-6.2-1.9-9.4-1.7v-24c6.9-5,12.9-11.1,17.7-18.2L416.5,231L416.5,231z M139,293l10-4.5
			c1.6-0.7,3.6-0.5,5,0.6l29.6,22.1l-14.5,12.1c-0.8,0.7-2,0.7-2.8-0.1l-27.8-27.8v0C137.8,294.7,138.1,293.4,139,293L139,293z
			 M222.8,257.5v22.9l-27.1,21l-28.4-21.3v-22.6C184.8,264.8,204.7,265,222.8,257.5L222.8,257.5z M251.3,293.1
			c0.9,0.4,1.2,1.7,0.4,2.4L224,322.6c-0.8,0.8-2,0.8-2.8,0.1c0,0,0,0,0,0l-13.5-11.5l28.4-22c1.5-1.1,3.4-1.4,5.1-0.6L251.3,293.1z
			 M189.6,340.1l-5.6-9.6l11.8-9.8l10.5,9l-5.8,10.4L189.6,340.1z M191.5,355.1h7l15.1,85h-37.1L191.5,355.1z M322.8,455
			c-3,7.9-10.7,13.5-19.6,13.5h-94.4c-8.9,0-16.6-5.6-19.6-13.5H322.8z M123.3,115c0-20.6,16.8-37.4,37.4-37.4H228
			c6.6,0,12,5.4,12,12c0,7.8,6.3,14.1,14.1,14.1h0.7c6.6,0,12,5.4,12,12v35.1h-6c-3.4,0-6.1-2.7-6.1-6.1v-7.4
			c0-14.9-14.5-25.4-28.7-20.7c-20,6.6-41.9,6.6-61.9,0c0,0-0.1,0-0.1,0c-14.1-4.6-28.6,5.9-28.6,20.7v7.4c0,3.4-2.7,6.1-6.1,6.1h-6
			L123.3,115z M123.3,180.6v-14.7h6c11.6,0,21.1-9.5,21.1-21.1v-7.4c0-4.7,4.6-8,9-6.5c0,0,0.1,0,0.1,0c23,7.6,48.3,7.6,71.3,0
			c4.4-1.5,9,1.8,9,6.5v7.4c0,11.6,9.5,21.1,21.1,21.1h6v14.7c0,1.5-1.2,2.8-2.8,2.8c-5.7,0-10.5,4.5-10.8,10.2
			c-1.9,30.6-27.4,54.5-58.1,54.5s-56.2-23.9-58.1-54.5c-0.4-5.7-5.1-10.2-10.8-10.2C124.6,183.3,123.3,182.1,123.3,180.6
			L123.3,180.6z M95.5,231h39.1c4.8,7,10.8,13.2,17.7,18.2v23.9c-3.1-0.2-6.3,0.4-9.3,1.7l-10,4.5c-1.7,0.8-3.3,1.8-4.6,3.1
			l-39,11.4v-56.7C89.3,233.8,92,231,95.5,231L95.5,231z M49.3,356.1c0-20.5,13.8-38.9,33.4-44.7l1.2-0.4c0,0,0.1,0,0.1,0l39.9-11.7
			c0.8,2.4,2.1,4.7,4,6.6v0l27.8,27.9c0,0,0.1,0,0.1,0.1c3.3,3.2,7.6,4.9,11.9,4.9c1.2,0,2.3-0.1,3.4-0.4l6.1,10.5L161.2,440h-61
			v-23.8c0-4.1-3.4-7.5-7.5-7.5s-7.5,3.4-7.5,7.5V440h-36L49.3,356.1z M459.8,497H52.2c-20.4,0-37.1-16.6-37.1-37.1
			c0-2.7,2.2-4.9,4.9-4.9h153.6c3.5,16.3,17.9,28.5,35.2,28.5h94.4c17.3,0,31.7-12.2,35.2-28.5H492c2.7,0,4.9,2.2,4.9,4.9
			C496.9,480.4,480.3,497,459.8,497z"/>
	</g>
</g>
</svg>
