<?xml version="1.0" encoding="utf-8"?>
<!-- Generator: Adobe Illustrator 21.0.0, SVG Export Plug-In . SVG Version: 6.00 Build 0)  -->
<svg version="1.1" id="Capa_1" xmlns="http://www.w3.org/2000/svg" xmlns:xlink="http://www.w3.org/1999/xlink" x="0px" y="0px"
	 viewBox="0 0 512 512" style="enable-background:new 0 0 512 512;" xml:space="preserve">
<style type="text/css">
	.st0{fill:#2B5ADC;}
</style>
<g>
	<path class="st0" d="M511.8,411.9v-45.1h-48.1v-30h-16v-25h16v-45.1H344v15h104.8v15H138v15h294.7v25H105.8
		c-6.9,0-12.5-5.6-12.5-12.5s5.6-12.5,12.5-12.5H123v-15h-17.2c-15.2,0-27.5,12.4-27.5,27.5s12.4,27.5,27.5,27.5h342.9v15H189.9v15
		h306.9v15h-424c-23.5,0-42.5,19.1-42.5,42.5S49.3,482,72.8,482h353.7v-15H72.8c-15.2,0-27.5-12.4-27.5-27.5s12.4-27.5,27.5-27.5
		h408v25H147.9v15h332.9v15h-39.3v15h55.3v15h-424c-31.7,0-57.6-25.8-57.6-57.6s25.8-57.6,57.6-57.6h102.1v-15h-69.1
		c-23.5,0-42.5-19.1-42.5-42.5s19.1-42.5,42.5-42.5h223.1v-15H105.8c-31.7,0-57.6,25.8-57.6,57.6c0,17,7.4,32.2,19.1,42.8
		c-37.5,2.8-67.1,34.2-67.1,72.4c0,40,32.6,72.6,72.6,72.6h439v-45.1h-16v-55.1H511.8z"/>
	<path class="st0" d="M117.8,436.9h15v15h-15V436.9z"/>
	<path class="st0" d="M138.4,223.2l3.3,2.2c1.3,0.9,32.9,21.3,114.3,21.3s113-20.4,114.3-21.3l3.3-2.2V96.8l45.1-15v70.9
		c-11.5,3.3-20,13.9-20,26.5v37.5h55.1v-37.5c0-12.6-8.5-23.2-20-26.5V76.7L460,68l-78.9-26.3l-4.7,14.2l36.1,12L256,120.1L99.5,68
		L256,15.8l106.1,35.4l4.7-14.2L256,0L52,68l86.3,28.8V223.2z M438.7,179.1v22.5h-25v-22.5c0-6.9,5.6-12.5,12.5-12.5
		S438.7,172.2,438.7,179.1z M153.4,101.8L256,136l102.6-34.2v58.8h-18.5v15h18.5v15h-32.5v15h32.5v9.1c-9.7,4.7-40.8,17-102.6,17
		c-61.9,0-93-12.3-102.6-17V101.8z"/>
	<path class="st0" d="M87.8,436.9h15v15h-15V436.9z"/>
	<path class="st0" d="M296,190.6h15v15h-15V190.6z"/>
</g>
</svg>
