<?xml version="1.0" encoding="utf-8"?>
<!-- Generator: Adobe Illustrator 21.0.0, SVG Export Plug-In . SVG Version: 6.00 Build 0)  -->
<svg version="1.1" id="Capa_1" xmlns="http://www.w3.org/2000/svg" xmlns:xlink="http://www.w3.org/1999/xlink" x="0px" y="0px"
	 viewBox="0 0 512 512" style="enable-background:new 0 0 512 512;" xml:space="preserve">
<style type="text/css">
	.st0{fill:#2B5ADC;}
</style>
<g>
	<circle class="st0" cx="338.8" cy="173.8" r="7.5"/>
	<circle class="st0" cx="368.8" cy="173.8" r="7.5"/>
	<circle class="st0" cx="308.8" cy="173.8" r="7.5"/>
	<path class="st0" d="M507.3,326.1c-17.4-7.1-31.5-20.7-39.1-37.8c28.3-31.7,43.8-72.4,43.8-115.1C512,77.7,434.3,0,338.8,0
		c-83.7,0-155.3,59.7-170.3,141.9c-0.7,4.1,2,8,6,8.7c4.1,0.7,8-2,8.7-6C197,69.5,262.4,15,338.8,15C426,15,497,86,497,173.2
		c0,40.4-15.3,78.9-43,108.4c-2,2.1-2.6,5.1-1.6,7.8c6.3,16.8,17.5,31.2,32.1,41.4c-3.3,0.5-6.6,0.7-10,0.7
		c-18.3,0-35.8-6.9-49.3-19.3c-2.4-2.2-5.9-2.6-8.8-1c-15.3,8.6-31.8,14.6-49,17.7c-4.1,0.7-6.8,4.6-6,8.7c0.7,4.1,4.7,6.8,8.7,6
		c17.2-3.1,33.6-8.8,49-16.9c15.6,12.8,35,19.7,55.3,19.7c11.3,0,22.4-2.1,32.8-6.4c2.8-1.1,4.7-3.9,4.7-7
		C512,330,510.1,327.2,507.3,326.1L507.3,326.1z"/>
	<path class="st0" d="M189.5,334.2c2.2-3.3,3.4-7.3,3.4-11.6c0-11.7-9.6-21.3-21.3-21.3h-17.4c-4.1,0-7.5,3.4-7.5,7.5v60
		c0,2,0.8,3.9,2.2,5.3c1.4,1.4,3.3,2.2,5.3,2.2c0,0,16.1-0.1,20.5-0.1c13,0,23.6-10.6,23.6-23.6
		C198.3,345.2,194.8,338.5,189.5,334.2L189.5,334.2z M161.6,316.3h9.9c3.5,0,6.3,2.8,6.3,6.3s-2.8,6.3-6.3,6.3c-0.2,0-0.3,0-0.5,0
		h-9.4V316.3z M174.6,361.3c-2.4,0-8.2,0-13,0V344h13c4.8,0,8.6,3.9,8.6,8.6C183.3,357.4,179.4,361.3,174.6,361.3z"/>
	<path class="st0" d="M109.3,307c0-0.1,0-0.1-0.1-0.2c-1.4-3.3-4.6-5.5-8.2-5.5c-3.6,0-6.8,2.2-8.2,5.5c0,0.1,0,0.1-0.1,0.2
		l-22.5,59.2c-1.5,3.9,0.5,8.2,4.3,9.7c3.9,1.5,8.2-0.5,9.7-4.3l3.8-9.9h26l3.8,9.9c1.5,3.9,5.8,5.8,9.7,4.3
		c3.9-1.5,5.8-5.8,4.3-9.7L109.3,307z M93.7,346.6l7.3-19.1l7.3,19.1H93.7z"/>
	<path class="st0" d="M274,354.6c-3.2-2.7-7.9-2.2-10.6,0.9c-0.5,0.6-1.1,1.2-1.7,1.7c-3,2.7-6.9,4.1-11.5,4.1
		c-12.4,0-22.5-10.1-22.5-22.5s10.1-22.5,22.5-22.5c4.5,0,8.9,1.3,12.6,3.8c3.4,2.3,8.1,1.4,10.4-2s1.4-8.1-2-10.4
		c-6.2-4.2-13.5-6.4-21-6.4c-20.7,0-37.5,16.8-37.5,37.5s16.8,37.5,37.5,37.5c8.3,0,15.7-2.7,21.5-7.9c1.1-1,2.2-2.1,3.2-3.3
		C277.5,362,277.1,357.3,274,354.6L274,354.6z"/>
	<path class="st0" d="M173.2,165.7C77.7,165.7,0,243.3,0,338.8c0,42.7,15.5,83.3,43.8,115.1c-7.6,17.1-21.6,30.8-39.1,37.8
		c-2.8,1.1-4.7,3.9-4.7,7c0,3.1,1.9,5.8,4.7,7c10.4,4.2,21.5,6.4,32.8,6.4c20.3,0,39.7-7,55.3-19.7c24.7,12.9,52.3,19.7,80.3,19.7
		c95.5,0,173.2-77.7,173.2-173.2S268.7,165.7,173.2,165.7z M173.2,497c-27.2,0-54.1-7-77.6-20.3c-1.2-0.7-2.4-1-3.7-1
		c-1.8,0-3.7,0.7-5.1,2C73.3,490.1,55.8,497,37.5,497c-3.4,0-6.7-0.2-10-0.7C42,486.2,53.3,471.8,59.5,455c1-2.7,0.4-5.7-1.6-7.8
		c-27.7-29.4-43-67.9-43-108.4c0-87.2,71-158.2,158.2-158.2c87.2,0,158.2,71,158.2,158.2S260.4,497,173.2,497z"/>
</g>
</svg>
