<?xml version="1.0" encoding="utf-8"?>
<!-- Generator: Adobe Illustrator 21.0.0, SVG Export Plug-In . SVG Version: 6.00 Build 0)  -->
<svg version="1.1" id="Layer_1" xmlns="http://www.w3.org/2000/svg" xmlns:xlink="http://www.w3.org/1999/xlink" x="0px" y="0px"
	 viewBox="0 0 220 88.7" style="enable-background:new 0 0 220 88.7;" xml:space="preserve">
<style type="text/css">
	.st0{fill:#D6DADB;}
	.st1{fill:#222C3C;}
	.st2{fill:#666666;}
	.st3{opacity:0.67;fill:url(#SVGID_1_);enable-background:new    ;}
	.st4{fill:#DE1A3E;}
	.st5{fill:#FFFFFF;}
	.st6{fill:#1A4ABD;}
	.st7{fill:none;}
	.st8{opacity:0.67;fill:url(#SVGID_2_);enable-background:new    ;}
	.st9{opacity:0.67;fill:url(#SVGID_3_);enable-background:new    ;}
	.st10{opacity:0.67;fill:url(#SVGID_4_);enable-background:new    ;}
	.st11{opacity:0.67;fill:url(#SVGID_5_);enable-background:new    ;}
</style>
<g>
	<title>Logo</title>
	<g>
		<polygon class="st0" points="93,15 93.9,16.9 96,17.2 94.5,18.6 94.8,20.7 93,19.7 91.2,20.7 91.5,18.6 90,17.2 92.1,16.9 		"/>
	</g>
	<g>
		<polygon class="st0" points="115.2,6.7 116.6,9.6 119.8,10 117.5,12.3 118,15.5 115.2,14 112.4,15.5 112.9,12.3 110.6,10 
			113.8,9.6 		"/>
	</g>
	<g>
		<polygon class="st0" points="127.2,10.1 128.3,12.4 130.9,12.7 129,14.5 129.5,17 127.2,15.8 124.9,17 125.4,14.5 123.5,12.7 
			126.1,12.4 		"/>
	</g>
	<g>
		<polygon class="st0" points="136.9,15.9 137.8,17.7 139.8,18 138.3,19.4 138.7,21.4 136.9,20.5 135.1,21.4 135.4,19.4 134,18 
			136,17.7 		"/>
	</g>
	<g>
		<polygon class="st0" points="103.3,10.1 104.4,12.5 107,12.9 105.1,14.7 105.6,17.3 103.3,16 101,17.3 101.4,14.7 99.5,12.9 
			102.1,12.5 		"/>
	</g>
	<g>
		<path class="st1" d="M29.4,59c0,0-0.3,0.3-0.8,0.7h1c1,0,1.8,0.3,2.4,0.9c0.6,0.6,0.9,1.4,0.9,2.4c0,1-0.3,1.8-0.9,2.4
			s-1.4,0.9-2.4,0.9h-1.9v-5.8C26.6,61.1,25,61.9,23,62v7.8h6.8c1.5,0,2.9-0.3,4-0.8c1.2-0.6,2.1-1.3,2.7-2.4c0.6-1,1-2.3,1-3.7
			c0-1.4-0.3-2.6-1-3.7c-0.6-1-1.5-1.8-2.7-2.4c-0.2-0.1-0.5-0.2-0.7-0.3C32,56.9,30.6,57.6,29.4,59z"/>
	</g>
	<path class="st1" d="M47.9,67.4h-5.2l-0.9,2.4h-4.7l6-13.7h4.6l6,13.7h-4.8L47.9,67.4z M46.7,64.1l-1.3-3.5L44,64.1H46.7z"/>
	<path class="st1" d="M67.4,56.1v13.7h-3.8l-5.2-6.2v6.2h-4.5V56.1h3.8l5.2,6.2v-6.2L67.4,56.1L67.4,56.1z"/>
	<path class="st1" d="M69.2,56.1h4.6v13.7h-4.6V56.1z"/>
	<path class="st1" d="M87,66.3v3.5H75.5V56.1h11.2v3.5h-6.6v1.6h5.8v3.3h-5.8v1.8H87L87,66.3z"/>
	<path class="st1" d="M88.2,56.1h4.6v10.1h6.2v3.6H88.2L88.2,56.1L88.2,56.1z"/>
	<path class="st1" d="M102.6,55.8c0.5,0.5,0.7,1.1,0.7,1.8c0,0.3,0,0.7-0.1,1c-0.1,0.3-0.3,0.9-0.6,1.5l-1.4,2.9h-2.7l1-3.3
		c-0.4-0.2-0.7-0.5-0.9-0.9c-0.2-0.4-0.3-0.8-0.3-1.3c0-0.8,0.2-1.4,0.7-1.8c0.5-0.5,1.1-0.7,1.9-0.7
		C101.5,55.1,102.1,55.3,102.6,55.8z"/>
	<path class="st1" d="M106.3,69.7c-1.1-0.2-2-0.6-2.6-1l1.5-3.4c0.7,0.4,1.4,0.7,2.2,0.9c0.8,0.2,1.6,0.3,2.3,0.3
		c0.6,0,1.1-0.1,1.4-0.2s0.4-0.3,0.4-0.6c0-0.3-0.2-0.5-0.5-0.6c-0.4-0.1-1-0.3-1.8-0.5c-1.1-0.2-1.9-0.5-2.6-0.7
		c-0.7-0.2-1.3-0.7-1.8-1.3s-0.8-1.4-0.8-2.4c0-0.9,0.2-1.6,0.7-2.4s1.2-1.3,2.2-1.7s2.1-0.6,3.5-0.6c0.9,0,1.9,0.1,2.8,0.3
		c0.9,0.2,1.7,0.5,2.4,0.9l-1.4,3.4c-1.3-0.7-2.6-1-3.8-1s-1.8,0.3-1.8,0.9c0,0.3,0.2,0.5,0.5,0.6c0.3,0.1,0.9,0.3,1.7,0.4
		c1.1,0.2,1.9,0.4,2.6,0.7c0.7,0.2,1.3,0.7,1.9,1.3c0.5,0.6,0.8,1.3,0.8,2.4c0,0.9-0.2,1.6-0.7,2.4c-0.5,0.7-1.2,1.3-2.2,1.7
		c-1,0.4-2.1,0.6-3.5,0.6C108.5,70.1,107.4,70,106.3,69.7z"/>
	<path class="st1" d="M124.6,69.7c-1.1-0.2-2-0.6-2.6-1l1.5-3.4c0.7,0.4,1.4,0.7,2.2,0.9c0.8,0.2,1.6,0.3,2.3,0.3
		c0.6,0,1.1-0.1,1.4-0.2s0.4-0.3,0.4-0.6c0-0.3-0.2-0.5-0.5-0.6c-0.4-0.1-1-0.3-1.8-0.5c-1.1-0.2-1.9-0.5-2.6-0.7
		c-0.7-0.2-1.3-0.7-1.8-1.3c-0.5-0.6-0.8-1.4-0.8-2.4c0-0.9,0.2-1.6,0.7-2.4c0.5-0.7,1.2-1.3,2.2-1.7s2.1-0.6,3.5-0.6
		c0.9,0,1.9,0.1,2.8,0.3c0.9,0.2,1.7,0.5,2.4,0.9l-1.4,3.4c-1.3-0.7-2.6-1-3.8-1c-1.2,0-1.8,0.3-1.8,0.9c0,0.3,0.2,0.5,0.5,0.6
		c0.3,0.1,0.9,0.3,1.7,0.4c1.1,0.2,1.9,0.4,2.6,0.7c0.7,0.2,1.3,0.7,1.9,1.3c0.5,0.6,0.8,1.3,0.8,2.4c0,0.9-0.2,1.6-0.7,2.4
		c-0.5,0.7-1.2,1.3-2.2,1.7c-1,0.4-2.1,0.6-3.5,0.6C126.8,70.1,125.7,70,124.6,69.7z"/>
	<path class="st1" d="M138.4,69.2c-1.2-0.6-2.1-1.4-2.7-2.5c-0.7-1.1-1-2.3-1-3.7s0.3-2.6,1-3.7c0.7-1.1,1.6-1.9,2.7-2.5
		c1.2-0.6,2.5-0.9,3.9-0.9c1.3,0,2.5,0.2,3.6,0.7c1.1,0.5,1.9,1.2,2.6,2l-2.9,2.6c-0.9-1.1-1.8-1.6-3-1.6c-1,0-1.7,0.3-2.3,0.9
		c-0.6,0.6-0.9,1.4-0.9,2.5c0,1.1,0.3,1.9,0.9,2.5c0.6,0.6,1.4,0.9,2.3,0.9c1.2,0,2.2-0.5,3-1.6l2.9,2.6c-0.7,0.9-1.5,1.6-2.6,2
		c-1.1,0.5-2.2,0.7-3.6,0.7C140.9,70.1,139.5,69.8,138.4,69.2z"/>
	<path class="st1" d="M162.9,56.1v13.7h-4.6v-5.1H154v5.1h-4.6V56.1h4.6v4.9h4.3v-4.9L162.9,56.1L162.9,56.1z"/>
	<path class="st1" d="M167.8,69.2c-1.2-0.6-2.1-1.5-2.8-2.5c-0.7-1.1-1-2.3-1-3.7c0-1.4,0.3-2.6,1-3.7c0.7-1.1,1.6-1.9,2.8-2.5
		s2.5-0.9,4-0.9s2.8,0.3,4,0.9c1.2,0.6,2.1,1.5,2.8,2.5c0.7,1.1,1,2.3,1,3.7c0,1.4-0.3,2.6-1,3.7c-0.7,1.1-1.6,1.9-2.8,2.5
		c-1.2,0.6-2.5,0.9-4,0.9C170.3,70.1,169,69.8,167.8,69.2z M173.4,66c0.5-0.3,0.8-0.7,1.1-1.2c0.3-0.5,0.4-1.1,0.4-1.8
		s-0.1-1.3-0.4-1.8c-0.3-0.5-0.6-0.9-1.1-1.2c-0.5-0.3-1-0.4-1.6-0.4c-0.6,0-1.1,0.1-1.6,0.4c-0.5,0.3-0.8,0.7-1.1,1.2
		s-0.4,1.1-0.4,1.8s0.1,1.3,0.4,1.8c0.3,0.5,0.6,0.9,1.1,1.2c0.5,0.3,1,0.4,1.6,0.4C172.4,66.4,172.9,66.2,173.4,66z"/>
	<path class="st1" d="M183.9,69.2c-1.2-0.6-2.1-1.5-2.8-2.5c-0.7-1.1-1-2.3-1-3.7c0-1.4,0.3-2.6,1-3.7c0.7-1.1,1.6-1.9,2.8-2.5
		s2.5-0.9,4-0.9s2.8,0.3,4,0.9s2.1,1.5,2.8,2.5c0.7,1.1,1,2.3,1,3.7c0,1.4-0.3,2.6-1,3.7s-1.6,1.9-2.8,2.5c-1.2,0.6-2.5,0.9-4,0.9
		C186.4,70.1,185.1,69.8,183.9,69.2z M189.5,66c0.5-0.3,0.8-0.7,1.1-1.2c0.3-0.5,0.4-1.1,0.4-1.8s-0.1-1.3-0.4-1.8
		c-0.3-0.5-0.6-0.9-1.1-1.2c-0.5-0.3-1-0.4-1.6-0.4c-0.6,0-1.1,0.1-1.6,0.4c-0.5,0.3-0.8,0.7-1.1,1.2s-0.4,1.1-0.4,1.8
		s0.1,1.3,0.4,1.8c0.3,0.5,0.6,0.9,1.1,1.2c0.5,0.3,1,0.4,1.6,0.4C188.5,66.4,189,66.2,189.5,66z"/>
	<path class="st1" d="M196.9,56.1h4.6v10.1h6.2v3.6h-10.8V56.1z"/>
	<path class="st1" d="M41.9,46.7l-8.2,5c0,0,1.5,1.6,1.4,3.5c0,0,0,0-0.1,0c-0.7,0-3.9,0.2-6.4,3c0,0-2.5,2.7-6.1,2.7
		c-1.3,0-2.8-0.4-4.5-1.4c0,0-1.1-1.5-0.1-4.3l-4-0.1l-0.4,3c0.2,0.1,0.4,0.3,0.3,0.6c0,0.2-0.1,0.3-0.2,0.4
		c0.4,1.5-0.1,6.2-0.1,6.2l-2.1-0.3c0,0,0.7-4.5,1.4-6c-0.1-0.1-0.2-0.3-0.2-0.5c0-0.2,0.2-0.4,0.4-0.5l0.4-3l-5.7-0.1L7.8,54
		l13.9-8.2H42L41.9,46.7z"/>
	<path class="st2" d="M59.7,79.8h-1.4v2.8h-0.6v-6.2h0.6v2.7h1.4l2.1-2.8h0.7l-2.3,3l2.4,3.2h-0.8L59.7,79.8z"/>
	<path class="st2" d="M68.5,76.4l-2.8,5.2c-0.2,0.4-0.4,0.6-0.7,0.8c-0.3,0.2-0.6,0.3-0.9,0.3c-0.2,0-0.5,0-0.8-0.2l0.2-0.5
		c0.2,0.1,0.4,0.1,0.6,0.1c0.4,0,0.7-0.2,1-0.7l0.2-0.3l-2.5-4.8h0.7l2.2,4.2l2.2-4.2L68.5,76.4L68.5,76.4z"/>
	<path class="st2" d="M73.7,77c0.4,0.4,0.7,0.9,0.7,1.5c0,0.7-0.2,1.2-0.7,1.5s-1.1,0.6-1.9,0.6h-1.7v2h-0.7v-6.2h2.3
		C72.7,76.4,73.3,76.6,73.7,77z M73.3,79.7c0.3-0.3,0.5-0.6,0.5-1.1s-0.2-0.9-0.5-1.2S72.5,77,71.9,77h-1.6v3.1h1.6
		C72.5,80.1,72.9,79.9,73.3,79.7z"/>
	<path class="st2" d="M76.9,82.2c-0.5-0.3-0.9-0.6-1.2-1.1c-0.3-0.5-0.4-1-0.4-1.6c0-0.6,0.1-1.1,0.4-1.6c0.3-0.5,0.7-0.9,1.2-1.1
		c0.5-0.3,1.1-0.4,1.7-0.4c0.5,0,0.9,0.1,1.3,0.2c0.4,0.1,0.7,0.4,1,0.7l-0.4,0.4c-0.5-0.5-1.1-0.7-1.8-0.7c-0.5,0-0.9,0.1-1.3,0.3
		c-0.4,0.2-0.7,0.5-0.9,0.9C76.1,78.5,76,79,76,79.5s0.1,0.9,0.3,1.3c0.2,0.4,0.5,0.7,0.9,0.9c0.4,0.2,0.8,0.3,1.3,0.3
		c0.7,0,1.3-0.2,1.8-0.7l0.4,0.4c-0.3,0.3-0.6,0.5-1,0.7c-0.4,0.1-0.8,0.2-1.3,0.2C77.9,82.6,77.4,82.5,76.9,82.2z"/>
	<path class="st2" d="M82.2,76.4h0.6v5.1l3.9-5.1h0.6v6.2h-0.6v-5.1l-3.9,5.1h-0.6L82.2,76.4L82.2,76.4L82.2,76.4z"/>
	<path class="st2" d="M91.7,76.4h0.6v6.2h-0.6V76.4z"/>
	<path class="st2" d="M99.6,76.4v6.2H99v-2.8h-3.9v2.8h-0.7v-6.2h0.7v2.7H99v-2.7H99.6z"/>
	<path class="st2" d="M102.8,82.2c-0.5-0.3-0.9-0.6-1.2-1.1c-0.3-0.5-0.4-1-0.4-1.6c0-0.6,0.1-1.1,0.4-1.6c0.3-0.5,0.7-0.9,1.2-1.1
		c0.5-0.3,1.1-0.4,1.7-0.4c0.6,0,1.2,0.1,1.7,0.4c0.5,0.3,0.9,0.6,1.2,1.1c0.3,0.5,0.4,1,0.4,1.6c0,0.6-0.1,1.1-0.4,1.6
		c-0.3,0.5-0.7,0.9-1.2,1.1s-1.1,0.4-1.7,0.4C103.8,82.6,103.3,82.5,102.8,82.2z M105.7,81.7c0.4-0.2,0.7-0.5,0.9-0.9
		c0.2-0.4,0.3-0.8,0.3-1.3c0-0.5-0.1-0.9-0.3-1.3c-0.2-0.4-0.5-0.7-0.9-0.9c-0.4-0.2-0.8-0.3-1.3-0.3s-0.9,0.1-1.3,0.3
		c-0.4,0.2-0.7,0.5-0.9,0.9c-0.2,0.4-0.3,0.8-0.3,1.3c0,0.5,0.1,0.9,0.3,1.3c0.2,0.4,0.5,0.7,0.9,0.9c0.4,0.2,0.8,0.3,1.3,0.3
		C104.9,82.1,105.3,82,105.7,81.7z"/>
	<path class="st2" d="M112.7,79.9c0.2,0.3,0.3,0.6,0.3,1s-0.1,0.7-0.3,1c-0.2,0.3-0.5,0.5-0.9,0.6c-0.4,0.1-0.8,0.2-1.2,0.2
		c-0.4,0-0.8-0.1-1.2-0.2c-0.4-0.1-0.8-0.3-1.1-0.6l0.2-0.5c0.3,0.2,0.6,0.4,0.9,0.5c0.3,0.1,0.7,0.2,1.1,0.2c0.3,0,0.6,0,0.9-0.1
		c0.3-0.1,0.5-0.2,0.7-0.5c0.2-0.2,0.2-0.4,0.2-0.7c0-0.4-0.1-0.6-0.4-0.8c-0.3-0.2-0.7-0.3-1.2-0.3h-1.3v-0.5h1.3
		c0.4,0,0.8-0.1,1-0.3c0.2-0.2,0.4-0.4,0.4-0.8c0-0.4-0.1-0.7-0.5-0.9c-0.3-0.2-0.7-0.3-1.2-0.3c-0.3,0-0.6,0-0.9,0.1
		c-0.3,0.1-0.6,0.2-0.9,0.4l-0.2-0.5c0.6-0.4,1.3-0.5,2-0.5c0.4,0,0.8,0.1,1.2,0.2c0.3,0.1,0.6,0.3,0.8,0.6c0.2,0.2,0.3,0.5,0.3,0.9
		c0,0.3-0.1,0.6-0.3,0.9s-0.4,0.4-0.8,0.5C112.1,79.5,112.5,79.6,112.7,79.9z"/>
	<path class="st2" d="M119,82v0.6h-4.4v-6.2h4.2V77h-3.6v2.2h3.2v0.6h-3.2v2.3L119,82L119,82z"/>
	<path class="st2" d="M126.9,76.4v6.2h-0.6v-5l-2.4,4.2h-0.3l-2.4-4.1v4.9h-0.6v-6.2h0.5l2.7,4.6l2.6-4.6L126.9,76.4L126.9,76.4
		L126.9,76.4z"/>
	<path class="st2" d="M134.1,76.4v6.2h-0.6v-2.8h-3.9v2.8H129v-6.2h0.7v2.7h3.9v-2.7H134.1z"/>
	<path class="st2" d="M136.2,76.4h0.6v5.1l3.9-5.1h0.6v6.2h-0.6v-5.1l-3.9,5.1h-0.6V76.4z"/>
	<path class="st2" d="M143.6,76.4l1.8,2.5l1.7-2.5h0.8l-2.1,3l2.3,3.2h-0.8l-1.9-2.6l-1.9,2.6h-0.8l2.3-3.2l-2.1-3H143.6z"/>
	<path class="st2" d="M158,76.4v6.2h-0.6v-5l-2.4,4.2h-0.3l-2.4-4.1v4.9h-0.6v-6.2h0.5l2.7,4.6l2.6-4.6L158,76.4L158,76.4L158,76.4z
		"/>
	<path class="st2" d="M161.1,82.2c-0.5-0.3-0.9-0.6-1.2-1.1c-0.3-0.5-0.4-1-0.4-1.6c0-0.6,0.1-1.1,0.4-1.6c0.3-0.5,0.7-0.9,1.2-1.1
		c0.5-0.3,1.1-0.4,1.7-0.4c0.6,0,1.2,0.1,1.7,0.4c0.5,0.3,0.9,0.6,1.2,1.1c0.3,0.5,0.4,1,0.4,1.6c0,0.6-0.1,1.1-0.4,1.6
		c-0.3,0.5-0.7,0.9-1.2,1.1c-0.5,0.3-1.1,0.4-1.7,0.4C162.1,82.6,161.6,82.5,161.1,82.2z M164.1,81.7c0.4-0.2,0.7-0.5,0.9-0.9
		c0.2-0.4,0.3-0.8,0.3-1.3c0-0.5-0.1-0.9-0.3-1.3c-0.2-0.4-0.5-0.7-0.9-0.9c-0.4-0.2-0.8-0.3-1.3-0.3c-0.5,0-0.9,0.1-1.3,0.3
		c-0.4,0.2-0.7,0.5-0.9,0.9c-0.2,0.4-0.3,0.8-0.3,1.3c0,0.5,0.1,0.9,0.3,1.3c0.2,0.4,0.5,0.7,0.9,0.9s0.8,0.3,1.3,0.3
		C163.3,82.1,163.7,82,164.1,81.7z"/>
	<path class="st2" d="M172.2,79.9c0.2,0.2,0.3,0.6,0.3,1c0,0.5-0.2,1-0.6,1.2c-0.4,0.3-0.9,0.4-1.7,0.4h-2.7v-6.2h2.6
		c0.7,0,1.2,0.1,1.5,0.4c0.4,0.3,0.6,0.7,0.6,1.2c0,0.3-0.1,0.6-0.3,0.9c-0.2,0.2-0.4,0.4-0.7,0.5C171.6,79.5,172,79.7,172.2,79.9z
		 M168.2,79.2h1.9c0.5,0,0.8-0.1,1.1-0.3c0.2-0.2,0.4-0.5,0.4-0.9c0-0.4-0.1-0.7-0.4-0.9c-0.2-0.2-0.6-0.3-1.1-0.3h-1.9V79.2z
		 M171.9,80.9c0-0.8-0.5-1.2-1.6-1.2h-2.1v2.4h2.1C171.3,82.1,171.9,81.7,171.9,80.9z"/>
	<g>
		
			<linearGradient id="SVGID_1_" gradientUnits="userSpaceOnUse" x1="455.9083" y1="815.5474" x2="430.4861" y2="874.9757" gradientTransform="matrix(0.839 0.121 -0.1595 0.8821 -138.6084 -761.3176)">
			<stop  offset="0" style="stop-color:#FFFFFF;stop-opacity:0.32"/>
			<stop  offset="0.3414" style="stop-color:#B7B6B3;stop-opacity:0.5522"/>
			<stop  offset="0.6541" style="stop-color:#7C7974;stop-opacity:0.7648"/>
			<stop  offset="0.8814" style="stop-color:#57534E;stop-opacity:0.9194"/>
			<stop  offset="1" style="stop-color:#49453F"/>
		</linearGradient>
		<polygon class="st3" points="92.6,47.2 92.6,47.3 92.6,47.3 		"/>
		<path class="st4" d="M108.4,40.9L108.4,40.9c0.5,0,1,0,1.5,0C109.4,40.9,108.9,40.9,108.4,40.9z"/>
		<path class="st4" d="M96.9,47.4L96.9,47.4c0.3-0.4,0.5-0.9,0.7-1.2C97.5,46.5,97.2,47,96.9,47.4z"/>
		<polygon class="st4" points="92.5,47 92.6,47.2 92.6,47.2 		"/>
		<path class="st5" d="M96.9,47.4C96.9,47.4,96.9,47.4,96.9,47.4L96.9,47.4C96.9,47.4,96.9,47.4,96.9,47.4L96.9,47.4z"/>
		<path class="st6" d="M91.7,46.8C91.7,46.8,91.7,46.8,91.7,46.8c0.2,0.2,0.5,0.3,0.9,0.4v0C92.3,47.1,92,47,91.7,46.8z"/>
		<path class="st6" d="M95.5,47.6c-0.7,0-1.4,0-2-0.1l0.1,0C94.1,47.6,94.8,47.6,95.5,47.6z"/>
		<path class="st6" d="M95.5,47.6L95.5,47.6L95.5,47.6L95.5,47.6z"/>
		<path class="st5" d="M103.4,15.2L103.4,15.2L103.4,15.2z"/>
		<path class="st5" d="M93.5,47.5c-0.3,0-0.6-0.1-0.9-0.2v0C92.9,47.4,93.2,47.5,93.5,47.5L93.5,47.5z"/>
		<path class="st5" d="M95.7,47.6c0,0-0.1,0-0.1,0C95.7,47.6,95.7,47.6,95.7,47.6z"/>
		<path class="st5" d="M92.6,47.2c0.3,0.1,0.6,0.2,0.9,0.2l-1-0.5L92.6,47.2z"/>
		<path class="st5" d="M95.5,47.6C95.5,47.6,95.6,47.6,95.5,47.6c0.1,0,0.2,0,0.2,0c0.4,0,0.8-0.1,1.2-0.2c0.3-0.4,0.5-0.9,0.7-1.2
			C96.9,46.6,96.2,47.1,95.5,47.6z"/>
		<path class="st5" d="M95.5,47.6c0,0,0.1,0,0.1,0C95.6,47.6,95.6,47.6,95.5,47.6L95.5,47.6z"/>
		<path class="st5" d="M96.9,47.4C96.9,47.4,96.9,47.4,96.9,47.4c-0.4,0.1-0.8,0.1-1.2,0.1C96.1,47.5,96.5,47.5,96.9,47.4z"/>
		<path class="st5" d="M92.5,47L92.5,47L92.5,47z"/>
		<path class="st5" d="M111.5,38.8c0.3-0.1,0.6-0.2,1-0.4C112.2,38.6,111.8,38.7,111.5,38.8l-0.2-0.1l0,0L111.5,38.8z"/>
		<path class="st5" d="M114.3,38.3L114.3,38.3c0-0.1,0.1-0.3,0.1-0.5C114.4,37.9,114.4,38.1,114.3,38.3z"/>
		<path class="st7" d="M80.4,33.1c-0.5,0.1-1,0.2-1.6,0.3C79.4,33.2,79.9,33.1,80.4,33.1z"/>
		<path class="st7" d="M79.7,42c-0.2-0.1-0.5-0.2-0.9-0.5l0,0C79.3,41.7,79.5,41.9,79.7,42z"/>
		<path class="st7" d="M78.3,40.8c0,0,0-0.1,0-0.1C78.3,40.7,78.3,40.8,78.3,40.8C78.3,40.8,78.3,40.8,78.3,40.8z"/>
		<path class="st7" d="M81.4,34.3C81.4,34.2,81.5,34.2,81.4,34.3L81.4,34.3C81.4,34.2,81.4,34.2,81.4,34.3z"/>
		<path class="st7" d="M86.7,41.9c-0.5,0.1-1.2,0.2-1.8,0.3C85.6,42.1,86.2,42,86.7,41.9z"/>
		<path class="st7" d="M91.3,37.3c-0.2,0.4-0.6,0.9-0.9,1.4C90.7,38.2,91,37.7,91.3,37.3z"/>
		<path class="st7" d="M78.6,39.6c0,0.1-0.1,0.1-0.1,0.3c0.3-0.5,0.9-1,1.3-1.4l0,0C79.4,38.8,78.8,39.2,78.6,39.6z"/>
		<path class="st7" d="M107.7,30.1c0-0.1,0-0.2,0.1-0.3C107.8,30,107.7,30,107.7,30.1C107.7,30.1,107.7,30.1,107.7,30.1z"/>
		<path class="st7" d="M108.7,32.2c-0.5,0-1,0-1.6-0.1C107.6,32.2,108.2,32.2,108.7,32.2z"/>
		<ellipse class="st7" cx="88.2" cy="42.5" rx="0" ry="0"/>
		<path class="st7" d="M103.5,32c-0.5,0-1.1,0-1.6,0C102.5,32,103,32,103.5,32z"/>
		<path class="st7" d="M93.9,31.9c-0.3,0.4-0.6,0.9-0.9,1.3C93.3,32.7,93.6,32.3,93.9,31.9z"/>
		<path class="st7" d="M102.6,37.1c0.1-0.1,0.1-0.2,0.2-0.3C102.8,37,102.7,37.1,102.6,37.1L102.6,37.1z"/>
		<path class="st7" d="M91,41.2c0.3,0,0.6-0.1,0.9-0.1C91.6,41.1,91.3,41.2,91,41.2L91,41.2z"/>
		<path class="st7" d="M102.9,36.8L102.9,36.8c-1,0.5-2,1.1-3,1.6l-2.2-1.2l2.2,1.2C100.9,37.9,101.9,37.4,102.9,36.8z"/>
		<path class="st7" d="M87.8,43.1c0.1-0.2,0.2-0.4,0.3-0.6l0,0C88,42.7,87.9,42.9,87.8,43.1z"/>
		<path class="st7" d="M112.8,27.2c-0.1-0.1-0.2-0.2-0.3-0.4l0,0C112.6,27,112.7,27.1,112.8,27.2z"/>
		<path class="st7" d="M109.1,26.7c0.1-0.1,0.5-0.4,1.1-0.9l0,0C109.6,26.3,109.3,26.5,109.1,26.7z"/>
		<path class="st7" d="M97,31.6c-0.5,0-1.1,0.1-1.6,0.1C96,31.7,96.5,31.6,97,31.6z"/>
		<path class="st7" d="M105.5,32.1c-0.3,0.3-0.6,0.7-0.9,1.1C104.9,32.8,105.2,32.4,105.5,32.1z"/>
		<path class="st7" d="M112.8,27.2c-0.4-0.3-0.8-0.6-1.2-0.8C112,26.6,112.4,26.9,112.8,27.2z"/>
		<polygon class="st7" points="114.7,29 114.7,29 113.6,27.5 113.6,27.5 		"/>
		
			<linearGradient id="SVGID_2_" gradientUnits="userSpaceOnUse" x1="465.9219" y1="819.8369" x2="419.4384" y2="928.4995" gradientTransform="matrix(0.839 0.121 -0.1595 0.8821 -138.6084 -761.3176)">
			<stop  offset="0" style="stop-color:#FFFFFF;stop-opacity:0.32"/>
			<stop  offset="0.3414" style="stop-color:#B7B6B3;stop-opacity:0.5522"/>
			<stop  offset="0.6541" style="stop-color:#7C7974;stop-opacity:0.7648"/>
			<stop  offset="0.8814" style="stop-color:#57534E;stop-opacity:0.9194"/>
			<stop  offset="1" style="stop-color:#49453F"/>
		</linearGradient>
		<path class="st8" d="M114.7,29c0.1-0.1,0.3-0.2,0.4-0.4l0,0C115,28.8,114.9,28.9,114.7,29L114.7,29z"/>
		
			<linearGradient id="SVGID_3_" gradientUnits="userSpaceOnUse" x1="460.2549" y1="832.814" x2="460.2549" y2="832.814" gradientTransform="matrix(0.839 0.121 -0.1595 0.8821 -138.6084 -761.3176)">
			<stop  offset="0" style="stop-color:#FFFFFF;stop-opacity:0.32"/>
			<stop  offset="0.3414" style="stop-color:#B7B6B3;stop-opacity:0.5522"/>
			<stop  offset="0.6541" style="stop-color:#7C7974;stop-opacity:0.7648"/>
			<stop  offset="0.8814" style="stop-color:#57534E;stop-opacity:0.9194"/>
			<stop  offset="1" style="stop-color:#49453F"/>
		</linearGradient>
		<path class="st9" d="M114.7,29L114.7,29L114.7,29z"/>
		
			<linearGradient id="SVGID_4_" gradientUnits="userSpaceOnUse" x1="447.9534" y1="843.7286" x2="447.9534" y2="843.7286" gradientTransform="matrix(0.839 0.121 -0.1595 0.8821 -138.6084 -761.3176)">
			<stop  offset="0" style="stop-color:#FFFFFF;stop-opacity:0.32"/>
			<stop  offset="0.3414" style="stop-color:#B7B6B3;stop-opacity:0.5522"/>
			<stop  offset="0.6541" style="stop-color:#7C7974;stop-opacity:0.7648"/>
			<stop  offset="0.8814" style="stop-color:#57534E;stop-opacity:0.9194"/>
			<stop  offset="1" style="stop-color:#49453F"/>
		</linearGradient>
		<circle class="st10" cx="102.6" cy="37.1" r="0"/>
		
			<linearGradient id="SVGID_5_" gradientUnits="userSpaceOnUse" x1="432.256" y1="851.9962" x2="432.256" y2="851.9962" gradientTransform="matrix(0.839 0.121 -0.1595 0.8821 -138.6084 -761.3176)">
			<stop  offset="0" style="stop-color:#FFFFFF;stop-opacity:0.32"/>
			<stop  offset="0.3414" style="stop-color:#B7B6B3;stop-opacity:0.5522"/>
			<stop  offset="0.6541" style="stop-color:#7C7974;stop-opacity:0.7648"/>
			<stop  offset="0.8814" style="stop-color:#57534E;stop-opacity:0.9194"/>
			<stop  offset="1" style="stop-color:#49453F"/>
		</linearGradient>
		<circle class="st11" cx="88.2" cy="42.5" r="0"/>
		<path class="st4" d="M115.2,28.7c0,0,0.1-0.1,0.2-0.1l0,0C115.3,28.6,115.2,28.6,115.2,28.7L115.2,28.7z"/>
		<path class="st4" d="M109.7,39.6c-0.5,0.2-1,0.4-1.5,0.7C108.7,40,109.2,39.8,109.7,39.6L109.7,39.6z"/>
		<path class="st4" d="M108.3,40.9c0,0,0.1,0,0.1,0l0,0C108.3,40.9,108.3,40.9,108.3,40.9z"/>
		<path class="st4" d="M115.3,28.5C115.3,28.5,115.3,28.5,115.3,28.5c-0.1,0-0.1,0.1-0.2,0.1l0,0l0,0
			C115.2,28.6,115.3,28.6,115.3,28.5z"/>
		<path class="st4" d="M98.3,40.9c-0.5,0-1.1,0.1-1.6,0.2C97.2,41.1,97.8,41,98.3,40.9z"/>
		<path class="st4" d="M102,38.1c0.2-0.3,0.4-0.6,0.6-0.9l0,0C102.5,37.4,102.2,37.8,102,38.1z"/>
		<path class="st4" d="M103.4,40.5c-0.5,0-1,0.1-1.6,0.1C102.4,40.5,102.9,40.5,103.4,40.5z"/>
		<path class="st4" d="M90.1,41.4c0.3,0,0.6-0.1,0.9-0.1l0,0C90.7,41.3,90.4,41.3,90.1,41.4z"/>
		<path class="st4" d="M100.2,40.7c-0.2,0.4-0.6,0.9-0.9,1.3C99.7,41.6,100,41.1,100.2,40.7z"/>
		<path class="st4" d="M88.2,42.5L88.2,42.5c0.2-0.3,0.4-0.6,0.5-0.9C88.5,41.9,88.3,42.2,88.2,42.5z"/>
		<path class="st4" d="M115.5,35.5c0.1-0.1,0.5-0.4,1.2-1C116,35.1,115.6,35.4,115.5,35.5z"/>
		<path class="st4" d="M114.7,32.8c-0.1-0.4-0.2-0.8-0.3-1.1C114.5,32.1,114.6,32.5,114.7,32.8z"/>
		<path class="st4" d="M130,25.5c-0.4,0.4-0.8,0.7-1.2,1.1c-2.8,2.5-5.4,4.7-7.8,6.6c-0.7,0.6-1.4,1.1-2,1.6l-4.2-5.8
			c0.1-0.1,0.3-0.2,0.4-0.3c0.1,0,0.1-0.1,0.2-0.1c0.1,0.1,0.2,0.1,0.4,0.2c0.4-0.3,0.9-0.6,1.3-0.9c0.7-0.4,1.4-0.9,2.1-1.3
			c2.9-1.5,6-2.2,9.2-1.5C129,25.2,129.5,25.4,130,25.5z"/>
		<path class="st4" d="M118.4,35.2c0,0-0.1-0.1-0.1-0.2C118.3,35.1,118.3,35.2,118.4,35.2L118.4,35.2z"/>
		<polygon class="st4" points="118.9,34.8 114.7,29 114.7,29 		"/>
		<path class="st4" d="M115.2,32c0.4,0.3,0.7,0.6,1,0.9C115.8,32.6,115.5,32.3,115.2,32z"/>
		<path class="st4" d="M118,33.8c0,0-0.1,0-0.2,0C117.9,33.8,117.9,33.8,118,33.8z"/>
		<path class="st4" d="M114.9,33.9c-0.8-0.1-1.5-0.3-2.2-0.5C113.5,33.6,114.2,33.8,114.9,33.9z"/>
		<path class="st4" d="M149.3,26.4c-1.3-0.1-2.5,0.3-3.5,1.1c0.4,0,0.8,0,1.2-0.1c1.2-0.1,2.2,0.3,2.9,1.1c0.5-0.5,1-0.9,1.6-1.4
			C150.8,26.6,150.1,26.4,149.3,26.4z"/>
		<polygon class="st4" points="123.5,41.2 123.5,41.2 123.6,41.3 123.6,41.3 		"/>
		<path class="st4" d="M142.6,35c-4.3,4-8.2,7.3-11.7,10.2c-0.6-0.2-1.2-0.5-1.8-0.8c-0.4-0.2-0.8-0.4-1.2-0.6
			c-1.5-0.8-2.9-1.6-4.2-2.5l-0.1-0.1c0.7-0.5,1.3-1.1,2-1.6c3.3-2.6,6.8-5.7,10.8-9.3c0.6,0.6,1.3,1.3,1.9,1.9
			C139.5,33.4,141,34.4,142.6,35z"/>
		<path class="st4" d="M141.2,46.7c1.1-0.1,2.2-0.3,3.4-0.5c4.6-1.1,8.1-3.7,10-8.1c0.6-1.4,0.9-2.8,0.9-4.2c-2.6,2.3-5,4.6-7.1,6.5
			C145.7,42.7,143.4,44.8,141.2,46.7z"/>
		<path class="st5" d="M136.3,30.3c-4,3.6-7.6,6.6-10.8,9.3c-0.7,0.6-1.4,1.1-2,1.6l-1.5-2.1l0,0l0,0c0,0,0,0,0-0.1l-0.1-0.1l0-0.1
			l-2.8-3.9c0.7-0.5,1.3-1.1,2-1.6c2.4-2,5-4.1,7.8-6.6c0.4-0.3,0.8-0.7,1.2-1.1l0,0c1.6,0.6,3.1,1.6,4.4,2.8
			C135,29,135.6,29.6,136.3,30.3z"/>
		<path class="st5" d="M118.4,35.2L118.4,35.2c0.3,0.3,0.5,0.6,0.8,0.9C118.9,35.8,118.7,35.5,118.4,35.2z"/>
		<path class="st5" d="M119.2,36.1c-0.3-0.2-0.6-0.4-0.9-0.6C118.6,35.6,118.9,35.8,119.2,36.1z"/>
		<path class="st5" d="M128.7,26.6c-2.8,2.5-5.4,4.7-7.8,6.6l0,0C123.3,31.3,125.9,29.1,128.7,26.6z"/>
		<polygon class="st5" points="118.9,34.9 118.9,34.9 118.9,34.8 118.9,34.8 		"/>
		<path class="st5" d="M120.9,33.2c-0.7,0.6-1.4,1.1-2,1.6v0C119.6,34.3,120.2,33.8,120.9,33.2L120.9,33.2z"/>
		<path class="st5" d="M118.4,35.2L118.4,35.2L118.4,35.2L118.4,35.2L118.4,35.2z"/>
		<path class="st5" d="M136.3,30.3c-3.9,3.6-7.6,6.6-10.8,9.3v0C128.7,36.9,132.3,33.9,136.3,30.3L136.3,30.3z"/>
		<path class="st5" d="M125.5,39.6c-0.7,0.6-1.4,1.1-2,1.6v0C124.1,40.6,124.8,40.1,125.5,39.6L125.5,39.6z"/>
		<polygon class="st5" points="123.5,41.2 123.5,41.2 123.4,41.2 123.4,41.2 		"/>
		<path class="st5" d="M150.4,29.2c1.4,2.7-0.4,6.2-3.4,6.6c-0.8,0.1-1.6,0.1-2.3-0.1c-0.7-0.1-1.4-0.4-2.1-0.6
			c-4.3,4-8.2,7.3-11.7,10.2c3.3,1.3,6.8,1.8,10.3,1.4c2.3-2,4.6-4.1,7.2-6.4c2.1-2,4.5-4.2,7-6.4c0-2.4-1.1-4.5-3-6.2
			c-0.3-0.2-0.6-0.5-0.9-0.6c-0.5,0.5-1.1,0.9-1.6,1.4C150.1,28.6,150.3,28.9,150.4,29.2z"/>
		<path class="st5" d="M130.8,45.3c3.5-2.9,7.4-6.3,11.7-10.2l0,0C138.2,39,134.3,42.4,130.8,45.3C130.8,45.2,130.8,45.3,130.8,45.3
			z"/>
		<path class="st5" d="M151.4,27L151.4,27c-0.5,0.5-1.1,0.9-1.6,1.4l0,0C150.4,27.9,150.9,27.5,151.4,27z"/>
		<path class="st5" d="M141.2,46.7C141.2,46.7,141.2,46.7,141.2,46.7c2.2-1.9,4.6-4,7-6.3c2.1-2,4.5-4.2,7.1-6.5l0,0
			c-2.5,2.3-4.9,4.4-7,6.4C145.8,42.6,143.4,44.7,141.2,46.7z"/>
		<path class="st6" d="M103.8,34.2L103.8,34.2L103.8,34.2z"/>
		<polygon class="st6" points="86.2,39.7 86.2,39.7 86.5,40.2 86.5,40.2 		"/>
		<path class="st6" d="M88.2,42.5l0.9,1.2L88.2,42.5z"/>
		<path class="st6" d="M112.7,30.6c-0.1,0.1-0.2,0.1-0.2,0.2C112.5,30.7,112.6,30.7,112.7,30.6c0.1-0.1,0.2-0.2,0.3-0.3
			C112.9,30.4,112.8,30.5,112.7,30.6z"/>
		<path class="st6" d="M108.6,33.5c0.9-0.6,1.8-1.3,2.7-1.9C110.4,32.3,109.5,32.9,108.6,33.5z"/>
		<polygon class="st6" points="90.5,45.7 90.5,45.7 90.5,45.7 91.2,46.8 91.2,46.8 		"/>
		<polygon class="st6" points="90.5,45.7 90.5,45.7 89,43.7 90.5,45.7 		"/>
		<path class="st6" d="M93,41c0.7-0.1,1.5-0.3,2.2-0.5C94.4,40.6,93.7,40.8,93,41z"/>
		<path class="st6" d="M95.6,40.3c0.2-0.1,0.5-0.1,0.7-0.2C96,40.2,95.8,40.3,95.6,40.3z"/>
		<polygon class="st6" points="86.5,40.2 86.2,39.7 86.2,39.7 		"/>
		<path class="st6" d="M90.5,45.7L90.5,45.7c0.3,0.4,0.6,0.8,1.2,1.1c0,0,0,0,0.1,0C91.2,46.5,90.8,46.1,90.5,45.7z"/>
		<path class="st6" d="M113.9,29.6c-0.4,0.3-0.8,0.6-1.2,1c-0.1,0.1-0.2,0.1-0.3,0.2c-0.3,0.3-0.7,0.5-1.1,0.8l0,0
			c0.3-0.2,0.7-0.5,1.1-0.8c0.1-0.1,0.2-0.1,0.3-0.2C113.1,30.3,113.5,30,113.9,29.6c0.1,0,0.1-0.1,0.2-0.2c0.2-0.2,0.4-0.3,0.6-0.5
			l0,0c-0.2,0.2-0.4,0.3-0.6,0.5C114,29.5,114,29.6,113.9,29.6z"/>
		<polygon class="st6" points="91.2,46.8 91.2,46.8 90.5,45.7 		"/>
		<polygon class="st6" points="88.2,42.5 88.2,42.5 89,43.7 90.5,45.7 		"/>
		<path class="st6" d="M104.4,36.2c0.4-0.2,0.8-0.5,1.2-0.7C105.2,35.7,104.8,35.9,104.4,36.2z"/>
		<path class="st6" d="M102.9,37c0.4-0.2,0.9-0.5,1.3-0.8C103.8,36.5,103.3,36.8,102.9,37z"/>
		<path class="st6" d="M98,39.4c-0.3,0.1-0.6,0.2-0.9,0.4C97.4,39.7,97.7,39.5,98,39.4L98,39.4z"/>
		<path class="st6" d="M86.5,40.1L86.5,40.1c-0.1-0.1-0.2-0.2-0.3-0.4l0,0l0,0C86.2,39.9,86.3,40,86.5,40.1z"/>
		<path class="st6" d="M102.7,37.1L102.7,37.1C102.6,37.1,102.6,37.1,102.7,37.1L102.7,37.1z"/>
		<path class="st6" d="M111.3,31.6L111.3,31.6L111.3,31.6L111.3,31.6z"/>
		<path class="st6" d="M104.2,36.3c0.1,0,0.1-0.1,0.2-0.1C104.3,36.2,104.3,36.2,104.2,36.3z"/>
		<path class="st6" d="M105.6,35.4c0.1,0,0.1-0.1,0.2-0.1C105.7,35.4,105.6,35.4,105.6,35.4z"/>
		<path class="st6" d="M102.7,37.1c0.1,0,0.1-0.1,0.2-0.1C102.8,37.1,102.7,37.1,102.7,37.1z"/>
		<path class="st6" d="M96.3,40.1c0.3-0.1,0.6-0.2,0.9-0.3C96.8,39.9,96.5,40,96.3,40.1z"/>
		<path class="st6" d="M95.2,40.4c0.1,0,0.2-0.1,0.4-0.1C95.4,40.3,95.3,40.4,95.2,40.4z"/>
		<path class="st6" d="M91.9,41.2c0.3,0,0.7-0.1,1.1-0.2C92.6,41,92.3,41.1,91.9,41.2z"/>
		<path class="st6" d="M108.5,33.6C108.5,33.6,108.5,33.5,108.5,33.6C108.5,33.5,108.5,33.6,108.5,33.6z"/>
		<path class="st6" d="M112.3,30.8c0.1-0.1,0.2-0.1,0.3-0.2C112.6,30.7,112.4,30.7,112.3,30.8z"/>
		<path class="st6" d="M86.2,39.7l0.3,0.5l0-0.1C86.3,40,86.2,39.9,86.2,39.7z"/>
		<path class="st6" d="M113.9,29.6c0.1,0,0.1-0.1,0.2-0.2C114,29.5,114,29.6,113.9,29.6z"/>
		<path class="st6" d="M121.9,39L121.9,39L121.9,39C121.9,39,121.9,39,121.9,39c-0.2-0.2-0.3-0.4-0.4-0.6c0.1,0.1,0.2,0.2,0.2,0.3
			l-2.8-3.9l-3.4-4.7l0-0.1c-0.1-0.2-0.3-0.4-0.4-0.5c0.1,0.1,0.2,0.2,0.2,0.3l-0.6-0.9c0.1-0.1,0.3-0.2,0.4-0.3
			c0.1,0,0.1-0.1,0.2-0.1c-0.6-0.3-1.2-0.7-1.7-1c-0.4-0.2-0.7-0.4-1.1-0.6c0.1,0.1,0.2,0.2,0.3,0.4c-0.4-0.3-0.8-0.6-1.2-0.8
			c0,0,0,0-0.1,0c-0.2-0.1-0.4-0.2-0.6-0.3c-0.2-0.1-0.5-0.2-0.7-0.3c-0.7,0.5-1,0.7-1.1,0.9c-0.1,0.1-0.1,0.2-0.2,0.2
			c-0.2-0.4-0.2-0.4-0.4-1.7c-4.5-1.2-8.8,0.1-12.3,3.7c-0.5,0.5-0.9,1-1.4,1.4l2.1,1.2c-0.5,0-1.1,0.1-1.6,0.1
			c-0.5,0-1.1,0.1-1.5,0.1c-0.3,0.4-0.6,0.9-0.9,1.3c-0.3,0.4-0.5,0.8-0.8,1.2L92,33c-1.6,1.3-3.4,2.2-5.5,2.6
			c-2.2,0.5-4-0.1-5.1-1.5c0,0,0,0.1,0,0.1c-0.2,0.4-0.5,0.8-0.7,1.2l-0.4-2.4c-0.5,0.1-1,0.2-1.6,0.3c-0.5,0.1-1.1,0.2-1.6,0.3
			c1-0.7,1.9-1.3,2.9-2l-0.3-2.4l0.9,0.5c0.5-1.6,2.1-2.7,4.2-2.3c0.2,0,0.4,0,0.7,0.1c-1.5-1.4-4.3-1.5-6.1-0.2
			c-2.7,2-3.9,4.8-3.4,8.1c0.3,1.7,0.8,3.2,1.6,4.6c0.2-0.1,0.4-0.3,0.6-0.4c0.5-0.3,1-0.7,1.5-1c-0.2,0.2-0.5,0.4-0.7,0.7
			s-0.5,0.5-0.6,0.7c0,0.1-0.1,0.4-0.1,0.8c0,0.1,0,0.1,0,0.1c0.2,0.2,0.3,0.4,0.5,0.7c0.4,0.2,0.7,0.4,0.9,0.5
			c0.3,0.2,0.4,0.2,0.7,0.3c-0.1,0-0.3,0.1-0.7,0.1c1.3,1.2,2.8,2.1,4.5,2.9c2.3,1,4.6,1.4,7,1.5c0.1,0,1,0.3,1.3,0.4l0-0.3l1,0.5
			c0.6,0.1,1.2,0.1,2,0.1h0c0.7-0.5,1.4-0.9,2.2-1.4c-0.2,0.4-0.5,0.8-0.7,1.2c3-0.6,7.1-2.3,13-6.1l-0.1-0.4c-0.4,0-1,0-1.5,0
			c0,0-0.1,0-0.1,0c-0.5,0-1.1,0-1.6,0c0.5-0.2,1-0.5,1.5-0.7c0.5-0.2,1-0.5,1.5-0.7l-0.3-2.1l1.9,1.2l0.2,0.1
			c0.3-0.1,0.6-0.2,1-0.4s0.6-0.2,1-0.3c0.4-0.1,0.7-0.2,1.1-0.3c0,0.2-0.1,0.3-0.1,0.5c0.3-0.2,0.6-0.5,1-0.7
			c0.2-0.2,0.4-0.3,0.7-0.5c0.2-0.1,0.2-0.1,0,0c0.2,0,0.4-0.1,0.7-0.2c0.1,0.1,0.3,0.3,0.5,0.3c1.3,0.3,2.4,1,3.4,1.8
			c0.9,0.8,1.9,1.5,2.9,2.2c0,0,0,0,0,0L121.9,39z M91,41.2c-0.3,0-0.6,0.1-0.9,0.1c-0.5,0.1-1,0.1-1.4,0.2
			c-0.2,0.3-0.3,0.6-0.5,0.9c-0.1,0.2-0.2,0.4-0.3,0.6c-0.2,0.4-0.5,0.8-0.7,1.2l-0.4-2.4c-0.5,0.1-1.2,0.2-1.8,0.3
			c-0.5,0.1-1,0.2-1.4,0.2c1-0.7,1.9-1.3,2.9-2l0-0.3l-0.3-0.5c0.1,0.1,0.2,0.2,0.3,0.4l-0.3-2l2.2,1.2c1-0.7,2-1.3,2.9-1.9
			c-0.2,0.4-0.6,0.9-0.9,1.4c-0.3,0.4-0.5,0.9-0.8,1.2l2.2,1.2C91.6,41.1,91.3,41.2,91,41.2z M101.8,40.6c-0.6,0-1.1,0.1-1.6,0.1
			c-0.2,0.4-0.6,0.9-0.9,1.3c-0.3,0.4-0.5,0.8-0.8,1.2L98.3,41c-0.5,0-1.1,0.1-1.6,0.2c-0.5,0.1-1.1,0.1-1.5,0.2c1-0.6,2-1.2,3-1.8
			l0-0.1l-0.3-2.2l2.2,1.2c1-0.6,2-1.1,3-1.6l0,0c-0.1,0.1-0.1,0.2-0.2,0.3c-0.2,0.3-0.4,0.6-0.6,0.9c-0.3,0.4-0.5,0.8-0.8,1.2
			l2.2,1.3C102.9,40.5,102.4,40.5,101.8,40.6z M107.1,32.1c-0.6,0-1.1,0-1.6-0.1c-0.3,0.3-0.6,0.7-0.9,1.1c-0.3,0.4-0.5,0.7-0.8,1
			l-0.3-2.2c-0.5,0-1.1,0-1.6,0c-0.5,0-1.1,0-1.6,0c1-0.5,2-1,3-1.4l-0.3-2.2l2.2,1.4c0.6-0.2,1.3-0.5,1.9-0.7
			c0.4-0.1,0.7-0.2,1.1-0.3c-0.1,0.5-0.2,0.8-0.3,0.9c0,0.1,0,0.2-0.1,0.3l0,0c0,0,0,0,0,0.1c-0.3,0.2-0.8,0.4-1.2,0.6l2.2,1.4
			C108.2,32.2,107.6,32.2,107.1,32.1z M118.3,35.4C118.3,35.4,118.2,35.4,118.3,35.4c-0.5-0.3-1-0.6-1.6-0.9c-0.7,0.5-1.1,0.8-1.2,1
			c-0.1,0.1-0.1,0.2-0.2,0.2c-0.2-0.4-0.2-0.4-0.4-1.8c-0.8-0.1-1.5-0.3-2.2-0.5c-0.2,0-0.3-0.1-0.5-0.1c-0.1,0-0.2,0-0.3-0.1
			c0.1,0,0.1,0,0.2,0c0.4-0.1,0.9-0.2,1.3-0.2c0.2,0,0.4,0,0.6-0.1c0.2,0,0.4,0,0.6,0l0,0c-0.1-0.3-0.2-0.7-0.3-1.1
			c-0.1-0.2-0.1-0.4-0.2-0.7c0.4,0.3,0.7,0.6,1,0.9c0.3,0.3,0.6,0.6,1,0.9c0.7,0.1,1.3,0.4,1.8,0.8c0,0,0,0,0.1,0c0,0-0.1,0-0.2,0
			c-0.1,0-0.2,0.1-0.5,0.3c0.3,0.3,0.6,0.7,0.9,1c0,0,0.1,0.1,0.1,0.1c0.3,0.3,0.5,0.6,0.8,0.9C118.9,35.8,118.6,35.6,118.3,35.4z"
			/>
		<path class="st6" d="M123.4,41.2c0,0,0.1,0.1,0.1,0.1L123.4,41.2C123.4,41.2,123.4,41.2,123.4,41.2z"/>
		<ellipse class="st6" cx="90.5" cy="45.7" rx="0" ry="0"/>
		<path class="st6" d="M123.4,41.2C123.4,41.2,123.4,41.2,123.4,41.2C123.4,41.2,123.4,41.2,123.4,41.2
			C123.4,41.2,123.4,41.2,123.4,41.2L123.4,41.2z"/>
		<path class="st5" d="M80.1,31.6c-1,0.7-1.9,1.3-2.9,2c0.5-0.1,1-0.2,1.6-0.3c0.5-0.1,1.1-0.2,1.6-0.3l0.4,2.4
			c0.2-0.3,0.4-0.8,0.7-1.2c0,0,0-0.1,0-0.1c-0.5-0.6-0.8-1.4-1-2.3c-0.1-0.8,0-1.5,0.1-2.2l-0.9-0.5L80.1,31.6z"/>
		<path class="st5" d="M78.8,33.3c-0.5,0.1-1.1,0.2-1.6,0.3C77.7,33.5,78.3,33.4,78.8,33.3z"/>
		<path class="st5" d="M81.4,34.3c-0.2,0.4-0.5,0.8-0.7,1.2C80.9,35.1,81.2,34.7,81.4,34.3z"/>
		<path class="st5" d="M79.7,42.4c0.3,0,0.6-0.1,0.7-0.1c-0.2-0.1-0.3-0.1-0.7-0.3c-0.2-0.1-0.5-0.2-0.9-0.5
			C79.1,41.8,79.4,42.1,79.7,42.4z"/>
		<path class="st5" d="M78.3,40.7L78.3,40.7c0-0.3,0-0.5,0.1-0.8c0,0,0,0,0,0c0-0.1,0.1-0.2,0.1-0.3c0.2-0.4,0.9-0.8,1.2-1.1
			c-0.5,0.3-1,0.7-1.5,1c-0.2,0.1-0.4,0.3-0.6,0.4c0.2,0.3,0.4,0.6,0.6,0.9C78.3,40.8,78.3,40.7,78.3,40.7z"/>
		<path class="st5" d="M79.7,42.4L79.7,42.4c0.3,0,0.6-0.1,0.7-0.1C80.3,42.3,80,42.4,79.7,42.4z"/>
		<path class="st5" d="M79.7,42c0.4,0.2,0.4,0.2,0.7,0.3C80.2,42.2,80.1,42.2,79.7,42z"/>
		<path class="st5" d="M78.3,40.7C78.3,40.7,78.3,40.7,78.3,40.7c0.1-0.4,0.1-0.7,0.1-0.8c0,0,0,0,0,0
			C78.3,40.2,78.4,40.4,78.3,40.7z"/>
		<path class="st5" d="M79.8,38.5c-0.5,0.3-1,0.7-1.5,1C78.8,39.1,79.3,38.8,79.8,38.5L79.8,38.5z"/>
		<path class="st5" d="M93.1,32.2c-0.3,0.3-0.7,0.6-1,0.9l0.2,1.3l0,0c0.2-0.3,0.5-0.8,0.8-1.2c0.3-0.5,0.6-1,0.9-1.3
			c0.5,0,1-0.1,1.5-0.1c0.6,0,1.2-0.1,1.6-0.1l-2.1-1.2C94.3,31,93.7,31.6,93.1,32.2z"/>
		<path class="st5" d="M95.4,31.7c-0.5,0-1.1,0.1-1.5,0.1C94.3,31.8,94.9,31.8,95.4,31.7z"/>
		<polygon class="st5" points="92.3,34.4 92.1,33.1 92.1,33.1 		"/>
		<path class="st5" d="M93,33.2c-0.3,0.4-0.5,0.8-0.8,1.2C92.5,34,92.7,33.6,93,33.2z"/>
		<path class="st5" d="M111.5,26.4C111.6,26.4,111.6,26.4,111.5,26.4c0.5,0.3,0.8,0.5,1.3,0.9c-0.1-0.1-0.2-0.2-0.3-0.4
			C112.2,26.7,111.9,26.5,111.5,26.4z"/>
		<path class="st5" d="M110.2,25.8c-0.6-0.2-1.1-0.4-1.7-0.5c0.2,1.2,0.2,1.2,0.4,1.7c0,0,0-0.1,0.2-0.2
			C109.3,26.5,109.6,26.3,110.2,25.8z"/>
		<path class="st5" d="M109,26.9c0,0,0-0.1,0.2-0.2C109,26.8,109,26.8,109,26.9z"/>
		<path class="st5" d="M111.5,26.4C111.6,26.4,111.6,26.4,111.5,26.4C111.6,26.4,111.6,26.4,111.5,26.4L111.5,26.4z"/>
		<path class="st5" d="M108.6,25.2L108.6,25.2c0.2,1.3,0.2,1.3,0.4,1.7C108.8,26.5,108.8,26.4,108.6,25.2z"/>
		<path class="st5" d="M87,40.5c0.4,0.2,0.8,0.4,1.3,0.5c0.4,0.1,0.8,0.2,1.2,0.2c0.5,0,1,0,1.5,0c0.3,0,0.6-0.1,0.9-0.1L89.7,40
			c0.2-0.4,0.5-0.8,0.8-1.2c0.3-0.5,0.6-1,0.9-1.4c-1,0.6-2,1.3-2.9,1.9l-2.2-1.2l0.3,2C86.6,40.3,86.8,40.4,87,40.5z"/>
		<polygon class="st5" points="88.2,42.5 86.5,40.2 86.5,40.2 		"/>
		<path class="st5" d="M86.5,40.2l0,0.3c-1,0.7-1.9,1.3-2.9,2c0.4-0.1,0.9-0.1,1.4-0.2c0.6-0.1,1.3-0.2,1.8-0.3l0.4,2.4
			c0.2-0.4,0.5-0.8,0.7-1.2c0.1-0.2,0.2-0.4,0.3-0.6L86.5,40.2z"/>
		<polygon class="st5" points="86.5,40.2 86.5,40.2 88.2,42.5 88.2,42.5 		"/>
		<path class="st5" d="M86.5,40.1c0.1,0.1,0.2,0.2,0.3,0.2c0.1,0,0.1,0.1,0.2,0.2c0.4,0.2,0.8,0.4,1.3,0.5c-0.5-0.1-0.9-0.3-1.3-0.5
			C86.8,40.4,86.6,40.3,86.5,40.1L86.5,40.1z"/>
		<path class="st5" d="M88.2,41c0.4,0.1,0.8,0.2,1.2,0.2C89,41.2,88.6,41.1,88.2,41z"/>
		<path class="st5" d="M88.7,41.6c0.4-0.1,0.9-0.1,1.4-0.2c0.3,0,0.6-0.1,0.9-0.1c-0.5,0-1.1,0-1.5,0c-0.4,0-0.8-0.1-1.2-0.2
			c-0.5-0.1-0.9-0.3-1.3-0.5c-0.1,0-0.2-0.1-0.2-0.2c-0.1-0.1-0.2-0.1-0.3-0.2l0,0.1l1.7,2.3C88.3,42.2,88.5,41.9,88.7,41.6z"/>
		<path class="st5" d="M90.4,38.7c-0.3,0.4-0.5,0.9-0.8,1.2C89.9,39.6,90.2,39.1,90.4,38.7z"/>
		<path class="st5" d="M85,42.2c-0.5,0.1-1,0.2-1.4,0.2C84,42.4,84.5,42.3,85,42.2z"/>
		<path class="st5" d="M87.8,43.1c-0.2,0.4-0.5,0.8-0.7,1.2C87.3,44,87.5,43.5,87.8,43.1z"/>
		<path class="st5" d="M90.1,41.4c-0.5,0.1-1,0.1-1.4,0.2C89.1,41.6,89.6,41.5,90.1,41.4z"/>
		<path class="st5" d="M101.9,32.1c0.6,0,1.1,0,1.6,0l0.3,2.2c0.2-0.3,0.5-0.7,0.8-1c0.3-0.4,0.6-0.8,0.9-1.1c0.5,0,1.1,0,1.6,0.1
			c0.6,0,1.1,0,1.6,0.1l-2.2-1.4c0.4-0.2,0.9-0.5,1.2-0.7c0-0.1,0.1-0.1,0.1-0.3c0.1-0.3,0.2-0.6,0.3-0.9c-0.3,0.1-0.7,0.2-1.1,0.3
			c-0.6,0.2-1.3,0.4-1.9,0.7l-2.2-1.4l0.3,2.1c-1,0.4-2,0.9-3,1.4C100.8,32.1,101.3,32.1,101.9,32.1z"/>
		<path class="st5" d="M107.1,32.1c-0.6,0-1.1,0-1.6-0.1C106,32.1,106.5,32.1,107.1,32.1z"/>
		<path class="st5" d="M103.8,34.2c0.2-0.3,0.5-0.7,0.8-1C104.3,33.5,104.1,33.9,103.8,34.2L103.8,34.2z"/>
		<path class="st5" d="M101.9,32.1c-0.5,0-1.1,0-1.6,0C100.8,32.1,101.3,32.1,101.9,32.1z"/>
		<polygon class="st5" points="103.5,32 103.8,34.2 103.8,34.2 		"/>
		<path class="st5" d="M107.7,30.2C107.7,30.2,107.7,30.2,107.7,30.2c-0.3,0.1-0.8,0.4-1.2,0.6C106.8,30.6,107.3,30.4,107.7,30.2z"
			/>
		<path class="st5" d="M103.8,34.2L103.8,34.2L103.8,34.2z"/>
		<path class="st5" d="M108.1,28.9c-0.1,0.3-0.2,0.6-0.3,0.9C107.9,29.7,108,29.4,108.1,28.9z"/>
		<path class="st5" d="M99.9,38.6c0.4-0.2,0.9-0.4,1.3-0.7C100.8,38.1,100.3,38.4,99.9,38.6z"/>
		<path class="st5" d="M98.2,39.3c0,0-0.1,0-0.2,0.1l0,0C98.1,39.4,98.2,39.4,98.2,39.3z"/>
		<path class="st5" d="M102.6,37.1c-0.4,0.2-0.7,0.4-1.1,0.6C101.9,37.6,102.3,37.4,102.6,37.1L102.6,37.1z"/>
		<path class="st5" d="M98.2,39.3c0.2-0.1,0.5-0.2,0.7-0.3C98.7,39.1,98.5,39.2,98.2,39.3z"/>
		<path class="st5" d="M101.2,37.9c0.1,0,0.2-0.1,0.3-0.2C101.4,37.8,101.3,37.9,101.2,37.9z"/>
		<path class="st5" d="M101.3,39.2c0.2-0.3,0.5-0.7,0.8-1.2c0.2-0.3,0.4-0.6,0.6-0.9c-0.4,0.2-0.7,0.4-1.1,0.6
			c0.4-0.2,0.7-0.4,1.1-0.6c0.1-0.1,0.1-0.2,0.2-0.3l0,0c-1,0.5-2,1.1-3,1.6l-2.2-1.2l0.3,2.2c0.1,0,0.1,0,0.2-0.1
			c0,0-0.1,0-0.2,0.1l0,0.1c-1,0.6-2,1.2-3,1.8c0.5-0.1,1-0.1,1.5-0.2c0.6-0.1,1.2-0.1,1.6-0.2l0.3,2.3c0.2-0.4,0.5-0.8,0.8-1.2
			c0.3-0.5,0.6-0.9,0.9-1.3c0.5,0,1-0.1,1.6-0.1c0.6,0,1.1-0.1,1.6-0.1L101.3,39.2z"/>
		<path class="st5" d="M102.9,36.8L102.9,36.8L102.9,36.8C102.8,36.9,102.9,36.8,102.9,36.8z"/>
		<path class="st5" d="M101.8,40.6c-0.6,0-1.1,0.1-1.6,0.1C100.7,40.7,101.3,40.6,101.8,40.6z"/>
		<path class="st5" d="M102,38.1c-0.3,0.4-0.5,0.8-0.8,1.2C101.5,38.9,101.7,38.5,102,38.1z"/>
		<path class="st5" d="M99.4,42c-0.3,0.4-0.5,0.8-0.8,1.2C98.8,42.9,99.1,42.5,99.4,42z"/>
		<path class="st5" d="M96.6,41.1c-0.5,0.1-1.1,0.1-1.5,0.2C95.6,41.3,96.1,41.2,96.6,41.1z"/>
		<path class="st5" d="M112.1,33.1c-0.1,0-0.1,0-0.2,0c0.1,0,0.2,0,0.3,0.1L112.1,33.1z"/>
		<g>
			<path class="st5" d="M118.2,35.1c-0.3-0.3-0.6-0.7-0.9-1c0.2-0.2,0.4-0.3,0.5-0.3c0.1,0,0.1,0,0.2,0c0,0,0,0,0,0
				c-0.5-0.4-1.1-0.6-1.8-0.8c-0.3-0.3-0.6-0.6-1-0.9c-0.3-0.3-0.7-0.6-1-0.9c0.1,0.2,0.1,0.5,0.2,0.7c0.1,0.3,0.2,0.6,0.3,1.1l0,0
				c-0.2,0-0.4,0-0.6,0c-0.2,0-0.4,0-0.6,0.1c-0.4,0-0.9,0.1-1.3,0.2l0.1,0.1c0.2,0,0.3,0.1,0.5,0.1c0.7,0.2,1.4,0.4,2.2,0.5
				c0.2,1.4,0.2,1.4,0.4,1.8c0,0,0-0.1,0.2-0.2c0.1-0.1,0.5-0.4,1.2-1c0.6,0.3,1.1,0.5,1.5,0.8c0.1,0,0.1-0.1,0.2-0.2
				C118.3,35.2,118.3,35.1,118.2,35.1z"/>
			<path class="st5" d="M118.4,35.2c-0.1,0-0.1,0.1-0.2,0.2c0,0,0.1,0,0.1,0c0.3,0.2,0.6,0.4,0.9,0.6
				C118.9,35.8,118.7,35.5,118.4,35.2z"/>
		</g>
		<path class="st5" d="M118.4,35.2L118.4,35.2c-0.1,0-0.1,0.1-0.2,0.1c0,0,0,0,0,0C118.3,35.3,118.3,35.3,118.4,35.2z"/>
		<path class="st5" d="M111.9,33.2c0.1,0,0.2,0,0.3,0.1l0,0C112.1,33.2,112,33.2,111.9,33.2z"/>
		<path class="st5" d="M114.4,31.7c0-0.2-0.1-0.4-0.2-0.7C114.2,31.3,114.3,31.5,114.4,31.7z"/>
		<path class="st5" d="M114.2,31.1c0.3,0.3,0.6,0.6,1,0.9C114.9,31.7,114.5,31.4,114.2,31.1z"/>
		<path class="st5" d="M114.7,32.8C114.7,32.8,114.7,32.8,114.7,32.8c-0.2,0-0.4,0-0.6,0C114.3,32.8,114.5,32.8,114.7,32.8
			C114.7,32.8,114.7,32.8,114.7,32.8z"/>
		<path class="st5" d="M112.2,33.3L112.2,33.3c0.2,0,0.3,0.1,0.5,0.1C112.6,33.3,112.4,33.3,112.2,33.3z"/>
		<path class="st5" d="M117.8,33.8c-0.1,0-0.2,0.1-0.5,0.3C117.6,34,117.7,33.9,117.8,33.8z"/>
		<path class="st5" d="M116.7,34.6c0.6,0.3,1.1,0.5,1.5,0.8l0,0C117.8,35.1,117.3,34.9,116.7,34.6z"/>
		<path class="st5" d="M115.3,35.8c0,0,0-0.1,0.2-0.2C115.4,35.7,115.3,35.7,115.3,35.8z"/>
		<path class="st5" d="M117.3,34.1c0.3,0.3,0.6,0.6,0.9,1C118,34.8,117.7,34.5,117.3,34.1z"/>
		<path class="st5" d="M115.3,35.8c-0.2-0.4-0.2-0.4-0.4-1.8C115.2,35.3,115.2,35.3,115.3,35.8z"/>
		<path class="st5" d="M118.2,35.4C118.2,35.4,118.3,35.4,118.2,35.4C118.3,35.4,118.2,35.4,118.2,35.4L118.2,35.4z"/>
		<path class="st5" d="M118.2,35.4L118.2,35.4L118.2,35.4L118.2,35.4L118.2,35.4z"/>
		<path class="st5" d="M114.5,37.8c0,0.2-0.1,0.3-0.1,0.5c-1.6,1.1-3,2.1-4.4,3l-0.1-0.4c-0.4,0-1,0-1.5,0c0,0-0.1,0-0.1,0
			c-0.5,0-1.1,0-1.6,0c0.5-0.2,1-0.5,1.5-0.7c0.5-0.2,1-0.5,1.5-0.7l-0.3-2.1l1.9,1.2l0.2,0.1c0.3-0.1,0.6-0.2,1-0.4
			c0.3-0.1,0.6-0.2,1-0.3C113.8,38,114.1,37.9,114.5,37.8z"/>
		<path class="st5" d="M111.3,38.7l-1.9-1.2L111.3,38.7z"/>
		<path class="st5" d="M108.3,40.9c-0.5,0-1.1,0-1.6,0C107.2,40.9,107.7,40.9,108.3,40.9z"/>
		<polygon class="st5" points="109.3,37.4 109.7,39.6 109.7,39.6 		"/>
		<path class="st5" d="M121.9,39c-0.1-0.2-0.3-0.4-0.4-0.5c0.1,0.1,0.2,0.2,0.2,0.3l0,0.1L121.9,39z"/>
		<path class="st5" d="M121.9,39L121.9,39L121.9,39z"/>
	</g>
</g>
</svg>
