<?xml version="1.0" encoding="utf-8"?>
<!-- Generator: Adobe Illustrator 21.0.0, SVG Export Plug-In . SVG Version: 6.00 Build 0)  -->
<svg version="1.1" id="Layer_1" xmlns="http://www.w3.org/2000/svg" xmlns:xlink="http://www.w3.org/1999/xlink" x="0px" y="0px"
	 viewBox="0 0 480 480" style="enable-background:new 0 0 480 480;" xml:space="preserve">
<style type="text/css">
	.st0{fill:#2B5ADC;}
</style>
<path class="st0" d="M240,480c132.5,0,240-107.5,240-240S372.5,0,240,0S0,107.5,0,240C0.1,372.5,107.5,479.9,240,480z M240,16
	c123.7,0,224,100.3,224,224S363.7,464,240,464S16,363.7,16,240C16.1,116.3,116.3,16.1,240,16z"/>
<path class="st0" d="M240,376c45.8-0.2,88.8-22,115.9-58.8c1.3-1.8,1.8-4.2,1.4-6.4c-9.3-42.4-40.7-76.5-82.2-89.4
	c23.6-15.5,34.3-44.7,26.2-71.8c-8.1-27.1-33-45.7-61.3-45.7s-53.2,18.6-61.3,45.7c-8.1,27.1,2.5,56.3,26.2,71.8
	c-41.5,12.8-72.9,46.9-82.2,89.3c-0.5,2.2,0,4.6,1.4,6.4C151.2,354,194.2,375.8,240,376z M192,168c0-26.5,21.5-48,48-48
	s48,21.5,48,48s-21.5,48-48,48C213.5,216,192,194.5,192,168z M240,232c47.6,0.2,89,32.5,100.8,78.6C316.6,341.8,279.4,360,240,360
	c-39.4,0-76.7-18.2-100.8-49.4C150.9,264.5,192.4,232.2,240,232z"/>
</svg>
